<mxfile host="app.diagrams.net" modified="2023-01-09T12:06:28.624Z" agent="5.0 (Macintosh)" etag="TEfTbVarQOIU3FNAOr60" version="20.5.1" type="github">
  <diagram id="CWG6g-ZDZDLjgkVgSMIW" name="Page-1">
    <mxGraphModel dx="1861" dy="1044" grid="1" gridSize="10" guides="1" tooltips="1" connect="1" arrows="1" fold="1" page="1" pageScale="1" pageWidth="4681" pageHeight="3300" math="0" shadow="0">
      <root>
        <mxCell id="0" />
        <mxCell id="1" parent="0" />
        <mxCell id="IwGxQNIVYgix1IoKI3rt-2" value="&lt;div align=&quot;left&quot;&gt;&lt;br&gt;&lt;/div&gt;" style="rounded=0;whiteSpace=wrap;html=1;fillColor=#60a917;glass=0;sketch=1;strokeColor=#2D7600;fontColor=#ffffff;" vertex="1" parent="1">
          <mxGeometry x="400" y="200" width="800" height="280" as="geometry" />
        </mxCell>
        <mxCell id="IwGxQNIVYgix1IoKI3rt-3" value="Private Subnet" style="text;html=1;strokeColor=none;fillColor=none;align=center;verticalAlign=middle;whiteSpace=wrap;rounded=0;fontStyle=1" vertex="1" parent="1">
          <mxGeometry x="410" y="210" width="100" height="30" as="geometry" />
        </mxCell>
        <mxCell id="IwGxQNIVYgix1IoKI3rt-13" style="edgeStyle=orthogonalEdgeStyle;rounded=0;orthogonalLoop=1;jettySize=auto;html=1;entryX=0;entryY=0.5;entryDx=0;entryDy=0;entryPerimeter=0;" edge="1" parent="1" source="IwGxQNIVYgix1IoKI3rt-9" target="IwGxQNIVYgix1IoKI3rt-12">
          <mxGeometry relative="1" as="geometry" />
        </mxCell>
        <mxCell id="IwGxQNIVYgix1IoKI3rt-9" value="" style="shape=image;verticalLabelPosition=bottom;labelBackgroundColor=default;verticalAlign=top;aspect=fixed;imageAspect=0;image=data:image/jpeg,/9j/4AAQSkZJRgABAQAAAQABAAD/4gKgSUNDX1BST0ZJTEUAAQEAAAKQbGNtcwQwAABtbnRyUkdCIFhZWiAAAAAAAAAAAAAAAABhY3NwQVBQTAAAAAAAAAAAAAAAAAAAAAAAAAAAAAAAAAAA9tYAAQAAAADTLWxjbXMAAAAAAAAAAAAAAAAAAAAAAAAAAAAAAAAAAAAAAAAAAAAAAAAAAAAAAAAAAAAAAAtkZXNjAAABCAAAADhjcHJ0AAABQAAAAE53dHB0AAABkAAAABRjaGFkAAABpAAAACxyWFlaAAAB0AAAABRiWFlaAAAB5AAAABRnWFlaAAAB+AAAABRyVFJDAAACDAAAACBnVFJDAAACLAAAACBiVFJDAAACTAAAACBjaHJtAAACbAAAACRtbHVjAAAAAAAAAAEAAAAMZW5VUwAAABwAAAAcAHMAUgBHAEIAIABiAHUAaQBsAHQALQBpAG4AAG1sdWMAAAAAAAAAAQAAAAxlblVTAAAAMgAAABwATgBvACAAYwBvAHAAeQByAGkAZwBoAHQALAAgAHUAcwBlACAAZgByAGUAZQBsAHkAAAAAWFlaIAAAAAAAAPbWAAEAAAAA0y1zZjMyAAAAAAABDEoAAAXj///zKgAAB5sAAP2H///7ov///aMAAAPYAADAlFhZWiAAAAAAAABvlAAAOO4AAAOQWFlaIAAAAAAAACSdAAAPgwAAtr5YWVogAAAAAAAAYqUAALeQAAAY3nBhcmEAAAAAAAMAAAACZmYAAPKnAAANWQAAE9AAAApbcGFyYQAAAAAAAwAAAAJmZgAA8qcAAA1ZAAAT0AAACltwYXJhAAAAAAADAAAAAmZmAADypwAADVkAABPQAAAKW2Nocm0AAAAAAAMAAAAAo9cAAFR7AABMzQAAmZoAACZmAAAPXP/bAEMABQMEBAQDBQQEBAUFBQYHDAgHBwcHDwsLCQwRDxISEQ8RERMWHBcTFBoVEREYIRgaHR0fHx8TFyIkIh4kHB4fHv/bAEMBBQUFBwYHDggIDh4UERQeHh4eHh4eHh4eHh4eHh4eHh4eHh4eHh4eHh4eHh4eHh4eHh4eHh4eHh4eHh4eHh4eHv/CABEIAZABkAMBIgACEQEDEQH/xAAcAAEBAAMAAwEAAAAAAAAAAAAAAQYHCAMEBQL/xAAVAQEBAAAAAAAAAAAAAAAAAAAAAf/aAAwDAQACEAMQAAAB1mFEKQqUAEKAlACUAJQAAlAAAAAABCgAFEsAAAAAAAAAAAAAAAAAAAAAAAFlCwAAAAAAAAAAAAAAAAAAAAAAAFE/UIoSiUAIoAAilBEoAASgAAAAAAAAAAULAAAAAAAAAAAAAAAAAAAAAAABZSywFIogCUAFIoh7B67IPZMWff8AkHrlIoiiKItPy+v75jLKPTPhvL4yKIoiiKIolCyiKIo2btPWW2E9R7Y9R7Y+Dzj0xoE+PnezciMVyf8AYAfn9DFtb7xHKk3/AKOX0V98+fluy80TBsv9oAAeLFsuGj8F6qxw52fX+SsURRFEqifqEURRtLbGp9sIAB63j90AAAAAPgffHO+8/qUAAAAAA+bz30tjZzw/f5WUEoFLKIoijaO19UbXQAAAeueww/0jPWK5OfsAAAAB+caMnYF7ZmT1vZAAANM686N5yUoiiULP1CKIo2htfVO1kAAGLnzNO+v+ViifW+UOgsl5k6NT3gAAMc+pzme38elij2NwaXp1MxXKkAAc39IaRMFUsUSqFgABtDa2qtqoAA0ZvPmg9AKUQDbGqM0N4hAANX6pzPDViiKIozHenNHS6AANR7c1UauUsUShZ+oRRFGz9q6q2qgADmDp/mE8CliiKJlmKZWb5CAAaGxPLMUIpYoijydQcwdPoAA1VtXVRq9SxRKpZRFgBs/amq9qIAA5h6e5iPCpYoiiZXiuVG+AgAGh8UyvFSKWKIo8nT3MPTyAANV7U1WawUsUShZ+oRRFGztp6s2mgADmPpzmQ8CliiKJleK5Ub3CAAaIxTK8VIpYoijydO8x9OIAA1ZtPVhrBSxRKoURYFhs3aerdpIAA5k6b5lPCpYoiiZVi2VG9QgAGicVyvFSKWKIo8nTfMnTaAANWbT1aaxUsUShZ+oRRFGzNpau2igADmbpnmY8KliiKJlWLZUb0CAAaKxXK8VIpYoijydNczdMoAA1btLVxrFSxRKoUQpAbM2jq7aKAAOZ+mOaDwqWFIomU4vlJvMIABovFsqxYhViiKP30zzP0wgADV20dXGs1LFEUWURRFGy9oav2ggADmnpbmk8KliiKJlOL5SbyCAAaMxbKsWIpYoijydL80dLoAA1ftDV5rNSxRKoWCUAbK2hrDZ6AAOauleazwhQAGUYvlJvEIABo3F8pxYBQAPJ0tzV0qgADV+0NYGtAoAoUQpFH0Pp45DJGODI2ODI8clIoiiKJ7PrjI2ODI2ODI2OD2PWsCiKIoZHjgyNjgyNjgyP5nzxFEUShZRFEURRFEURRFEURRFEURRFEURRFEURRFEURRFEUShZVRRFEURRFEURRFEURRFEURRFEURRFEURRFEURRFEqiVEVUURURVRRFRFVFEURRFEURRFEURRFEURRFEURRFEoWURRFEURRFEURRFEURRFEURRFEURRFEURRFEURRFEoH6hFEURRFEURRFEURRFEURRFEURRFEURRFEURRFEUSqf/xAAuEAAABQMEAQMCBgMAAAAAAAADBAUGIAABAjAyMzUVFDFQERMHEBIWIUAkQZD/2gAIAQEAAQUC+Sv7/IW+Tv7/ACFvk/8AfyFve/v8hb5O/v8AIWq/yNvkrVf+iECKNcNFVc6/b6vWaMq4UKCMDfRxtfK4SaoC1igq+VXb6vahElTDoTDMO+reTDDDEy9MXr0xevTF69MXr0xelUuBZMrG18sk1sHDFEm+mFaxxxwx/PLHHKx1ATDVKjZOFrXt9LwTG+fO0SbCcBQBcAC0BAwxMTrdTDNKTYOl6ytfHLRtV5fh/vir9UkpplSGSEcom4aK2hllHE6VHJmKIkzB0dFb5Ujpq6OUUsFRPMJxjQtV/eLA3xNBWHLEywJQvpraYCplSSMcMqKYQLp5fUUiQB8qqERk83O3vf3iwN/9P6W+us4E3FSJZY3xylabA3/BvUh9k3K1X94sDdoDjBAYDuRKDv8AupNos4Eoa+GWOeOlle2NjK8lgXu6k36guVKEuXHBMYTXSnrUuVve8mDvm4V/Ejc0YHNC/mnKBsgIhq4KmFoLasAmAqSkcUM/zLDjFhG84MTmU1oD0yrK/vFg75ORR8en3vfK8SZgUoZIGcDhOSgawJkzpkU2Zjb+LtlR8gnyewf6FiNqvJg75PEz99XmxDP1Dk+zN7YzZ5n7CxJ+4/5MbVf3iwt8lHP7qhNmZ/pW5PLP9S3NPz+0fk/d8bVeTC3SG5ptLvpO3vpg80n7vjaryYW+Q3NNpd9J299MLlk/d8bVf3iwt8huabS76Tt76YXLJ+79Rh7pDc02n3snZ3swuWT83ajD3SG5ptPvZOzvZhcsn5v1GHukNzTafeydnezC5ZPzdqMTdIbmm0+9k7O9mFyyfe7UYm6Q3NNqd7J197MLlk+92oxN0huabU72Tr72YXLJ97tRibpDc02p3snX3swuWT73ajF3SG5ptTvJOvvJhcsn1u1GLukNzTaneSdfeTC5ZPrdqMXdIbmm1O8k6+8mFyyfW7UYu6Q3NNq95J1d5MLlk+d2oxt0huabV7yTq7yYXLJ87tRjbpDc02r3knV3kwuWT53ahI8aJV51VrzqrXnVWvOqtedVa86q1e/1vMqOKWG86q151VrzqrXnVWvOqtedVaNDimRp2/i/nVWvOqtedVa86q151VrzqrR08aO/8Lf/xAAUEQEAAAAAAAAAAAAAAAAAAACQ/9oACAEDAQE/ARx//8QAFBEBAAAAAAAAAAAAAAAAAAAAkP/aAAgBAgEBPwEcf//EAD0QAAADBAYGBQsEAwAAAAAAAAECAwAEIDARcXKCscESITE0QZITIjJRUhQjM0BhYoGRoaLREEKQ4VBTc//aAAgBAQAGPwL+DehJI6lktLanFX46m3MecG1uK3wClqFUjp2i0SqCgIj7G6jkuNxtyN8RBtzHmBus4r/AtLUKEMQfeCj1R70yFN2doVtu6XIDegS5Ab0CXIDegS5Ab0CXIDPQggmA9Cb9od36AUoCIjsAGA7yPkxO7aZgHoOlN4lNbaJSgUO4IKDAAh3Cw+Y6I3iT1MJ3YfKU/Z2vk1A7YQPodAl4j/hgFbSeDe9qD5NQiimmHuloh0VCFOHcYKW1I9CbvT1fRhO7CDyT2ajfJhKYBAQ2gPqL5dziev8AibBujQL1Q7Rx2FbzZdNXiobb/UoThQk8cDhxrYyDwTROH1/QEXdMTm+gMCitC6/iHYWqX5wugrwULt/tuiXLZMGw3qD5dziUREaAUKJaWKg7k0SFmdGfqqB6M/cxnPQ0BTHzhh2FYEUC0eI3E00yC5aQHYPEo97Gd1rpvEHfPfLufqlNE8SB6YmtMcmEpgoMGoQnPl3P/CFfUw6i2o9qc93c5OmsoRMveYaGoBYylgrdh45Q/LUeU9GPvhQwGIYDAPEJekYQAA4i1AvIHH3A0m7Dxyh+WoFU6dsjaaCpFC95RpkLI0daiklYTnu7nIF2dqDvHEeBG6R4VMob2waTuqIBxL+0W1dRYvbJnJ63XVN2E2peFR0eBA7IQdIgoZM/eUWB2e6CL/tNwP8A3IeUQ2AfVUOua93c4xMQfPKdVP8ALCIjSI7YiPCI0HILJvKfZOFNUajyp2SB82O8LDSc30ipAaBbzg+eT6p/b7YwP/sTAZr3dzjFOnqoho/HjIXdBHsjpljQdAHb1zZSCp09VYNEco3U3eQQmvd3ON4U8Sph+sgC+NMwRmDwEKEh3U8KhR+sbpeymvd3OM9oZCFRsI16i4SCWgjdL2U17u5xqWhkIVGwjXqLhIJaCN0vZTXu7nGpaGQhUbCNeouEgloI3S9lNe7ucZ7QyEKjYRr1FwkEtBG6Xspr3dzjPaGQhUbCNeouEgloI3S9lNe7ucZ7QyEKjYRr1FwkEtBG6Xspr3dzjPaGQhUbCNeouEgloI3S9lNe7ucZ7QyEKjYRr1FwkEtBG6Xspr3dzjPaGQjUbCNaouEgloI3S9lNe7ucZ7QyEajYRrVFwkEtBG6Xspr3dzjPaGQjUbCNaouEgloI3S9lNe7ucZ7QyEajYRrVFwkEtBG6Xspr3dzjPaGQjUbCNaouEgloI3S9lNe7ucZ7QyEajYRrVFwkEtBG6Xspr1dzjPaGQjUbCNaouEgloI3W9lNerucZ7QyEajYRrVFwkEtBG63sppvJldDS26m3r7Qbeh5Qbeh5Qbeh5Qbeh5QbevtBhEeMgFkD6Jw2C29faDb0PKDb0PKDb0PKDb0PKDb0PKDCsubTOO0ZFINvQ8oNvQ8oNvQ8oNvQ8oNvQ8oNvX2gxfKVdPR2av4Lf//EACoQAAEDAwMEAwEBAAMBAAAAAAEAEVEgMfAhMKFBUGHBcYGx0ZEQQOHx/9oACAEBAAE/ISS51KcyU5kpzJTmSnMlOZKcyU5kpzJTmSnMlOZKcyU5kpzJTmSnMlOZKcyU5kpzJTmSnMlOZKcyU5kpzJTmSnMlOZKcyU5kpzJTmSnMlOZKcyU5kpzJTmSnMlOZKcyU5kpzJTmSnMlOZKBLjUq53G4I3PcRcK53G4I3PcRcI3dxsK53G4I3PcRcK53G4K49xuCNz3G4K41aBOJCcSE4kJxITiQnEil6Og34Vh/xH7Wm+D8rXTslk+Heb9bXgEQOgzjz1eByrQH4ftAnd+P7oM7YdfSXhthf1ui4Vxq0S8NbLVNPPPPAdoUEaWtBFgswDkoaHL1B366faFMR9X824QgEbAYUGZ6uBwhhET4xbhMpDVgYfb6RCAIDQgi1IsgE6bEjxceEMBnnwvbrwfoX4p8SJAcoESY/X/8ABDQJ6Az7fSLBZgGI2rgrjVwKrCzWiR4Nf3whQuo02v4h8bQk2ei/wPX9RWn+UJB6j/gzY3hknoEFHB1Z1vD3tmBYxptHzBHumOttSP5s3BXKuJVFXGQLgEMh/BtB1JkydwoY1bOp/wARpk0CaE+X6JguuS5JO7cDIH0CAw5GoBp0A2LCuVcT/qQAQACbmd8dADx8+hRv5pIuCOldwRuauB2SG0Ng6B1+x+V3BXKuHsxaOehBOYflPJZB62JUCgcdD87LVqUCODtlupYkYBHw76G5DRBMBxKjyX5G4deG1HYA1d+9D+fddhXGri7EC3rrX5pPhFhn6nb4igIfrV1+UI3Y21TwkbIAdK0DqfJgIpMO6P6P7QGj6B/9Ty10Bp4vGwGEMaR+h+1C4Vyrg1zUTnwHr9P4jFinInUmrXdwPI6g+CoZWl1H0a+pq2l0H2U5zr+A6AeBURAQAuCOiKIuH9L7f2tlB+sCR6quCuNXBriB3DiPLX9N9bBLfAvB0P4P9r0DxkXxp7bBCzD/AJr/AI5rY/8ACRH9quCuVcWuKT1/QbBxR0I8H1WQ/YL/AI/vYOELfiK+LVXBXGrj12enYwE68BHYwk18WquCuNXBrs1OxgJ14COxmJr4NVcFcq4Ndmp2MBOvAR2MxNfBqhcI3NXGrs9OxmJ15iOxmJr49ULhG5q4Vdnp2MxOvMR2MxNfAqhcI3NXCrs9OxiJ14iOxmJr4VULhG5q41dnp2MBOvAR2MxNfGqhcI3NXGrs9OxkJ15COxmJr41ULhG5q4Vdnp2MpOvKR2MxNfCqhcI3NXCrs9OxlJ15SOxmJr4VULhG5q41dnp2M5OvOR2MhNfGqhcI3NXGrspOxjJ14yOxmJr41ULhG5q4VdnJ2MZOvGR2MhNfCqhcI3NXCrsJOxnJ15yOxgJr41ULhG5q49dlJ2MpOvOR2MRNfHqhcI3NXHrsJOxlJ14SOxgJr49ULhG5qMGTTtF2+fleTn4WF+lhfpYX6WF+l5OfhG10Sc7Gr8+iCzhuq8nPwsL9LC/Swv0sL9LC/S0fr0QHYN02CILgLhYX6WF+lhfpYX6WF+l5OfhGDNr2gz/HxULhG57iLhG57iLhG57iLhG57iLhG57iLhG57iLhG57iLhG57iLhG57iLhG57iLhEF7JjCYwmMJjCYwmMJjCYwmMJjCYwmMJjCYwmMJjCYwmMJjCYwmMJjCYwmMJjCYwmMJjCYwmMJjCYwmMJjCYwmMJjCYwmMJjCYwmMJjCYwmMJjCYwmMIAvZf/9oADAMBAAIAAwAAABCkUUkEUEkEkEkEEkEEEEEEUEFEU000000000000000000000002U00000000000000000000001331203003w1001000000000012U0000000000000000000000000kEkkEEEkQkkEEEEAgEEEEEEUjDDXzylVzyxxjC1zzzznjDHDHHHF3zzzzzzzzzXzzzzzwnyx1kgAB3zzzzzjzzzzzDzzzzywAATDDDXzzwDSDDzzz3zjzzzz3zzywwzXzy0wAwDzzwgAABXzzgAARDDDzzynDDizzzx3zzzXzzzzzwgQxzzz0AAATzzwkAAB3zywAARTDBzzynzTyzzzx3zzzXzyzzzigQTTzz0AAADzzwEAAB3zzgAARLLLTzy3bDLDzzzXrbZXzzjL7qggxzzzkAgBDzzyEgAD3zzwABRjDBzzy3DDDDzzzHLLJ3zyzLLKZ47Tzyk445rzzyc447Xzzg45qooKYIJoIIJKJKKYIIILCDAIIZpLLLKKLLLLLLLLLLLLLLLLLKZjDDDDDDDDDDDDDDDDDDDDDDCAoDCKDCLBDDDDDDDDDDDDDDDCQiCCADDDDDDDDDDDDDDDDDDDCSAAAAAAAAAAAAAAAAAAAAAAAAD/8QAHREAAgMBAQEBAQAAAAAAAAAAARARIDAAIXAxQP/aAAgBAwEBPxD4LPT0965U9PThKLHTSe8U1nvO8XlTlNwcD/ELTx2/aC5YU5FisosZSixcsaFi5Y0LFyxoWLljQsXLGhYuWNCxcsaFj41//8QAHREAAgMBAQEBAQAAAAAAAAAAABEBICFAEDBgcP/aAAgBAgEBPxD+DO7+kfBcMdMdMdMXmkfaOKaYYYRTDBWwwyk3jim8cU0Y6wMYx1Yx1Yx3jmj2KKy8m7GOrGMmjGMdWMdEIRFUIRtVAoFFMMMMMMMMMMMMMMMM9z3P1H//xAApEAADAAADCAIDAQEBAAAAAAAAAREgYZEQITFBUaHw8TCBUHGxwUDh/9oACAEBAAE/EM/D5nvD3h7w94e8PeHvD3h7w94e8PeHvD3h7Q94e8PeHvD3h7w94e8PeHvD3h7w94e8PeHvD3h7w94e+PeHvD3h7494e8PeHvD3h7w94e+PeGfhcxNRkIQhCEIQhCEIQhCbIQhNkIQmybZthCEwTEmsjvn+R75CahCEIQhCEIQhCEIQhCEIQhCEIQhCEIQhCEIQhCEIQgmsjvn+R75C6jIQhCbIQhCEJtmyE/7u4O4eCbYQm2EITbCE2QhCE2QhCEIQhCEIQhCEIQhBNZHfP8j3yE1GQhCEIQhCEIQhCEIQhCEIQhCEIQhCEIQmybJsmFNZHdMhCEIQhCEIQhCEIQhCEIQhCEIQhCEIQhCEIQhCEIQTWR3z/IprITWeJuFaX2e8PeHvD3h7wV92pgzL3XmfsYmTVvh/qUNG8Mt6VDQFxh/djiteX8cjd8KayODjP6W8XeGq2+0SElV+LTYso+y8cxGF/sYkA+MNEXy98hNYhCEIIlf12VyrceIf4eMf4eMf4eMf4eMf4K0SNNlBpzczgQtMpgbfBJLe2Lt4nuQ+8+65Cgbz71uT7v0N3ChGj9JbsCWvRCz9p7jfZ7vdzRX9hWy9p7nvL7rkMwq4xsuKafBkIQiJHlae6l3hw+oqL+O8mUe4LKwU/wAAwtT24sj6RovNRqHc2vaijRXuw/Ztfdch6IzAzzTT3pkJ8CL7kJrMhCEIJ4fPHuKqUsrTHV823xN7yW8SGkJn1FyZH2b+JZ8cnvyQ4M+DsOB/w48pwzOv75kN5WF+H0MjvyrIF+3jmPp1b+k4fGubESp3JLwyH9NCE29RN9Wderb13IQhCEIQTWR3DIQhCHg+uKibFtamavNUnl0j9p3FnNv5EOKXvjo3zb8198UjeH3k5NH0N6LjU9yrSOe43jrc8uC4L5UpdwbIN5Nd1ue45cc4f/8AA1ye4hCEIQgmojuHi8H1/wCTBQcFvjcr1+dLndwpO9n9L6OPkLyRLGkbLqmQhCEIJrHfPF4Pr+E2GmCblv4r+2fPbCEId0juHi8f1+HxMKa4Noeltxndg/pjUvrgiMjUSzqX9CkDR63VNbn8a3SRCHVt7kNkzH24f0ZIOK/tCqwuDQ1SWojNXkhZOPc8n8Cpo591vXCf219GN/NNPo8SaiEX3PZMHh+vwUwupxJ6F/iXPoPXlz6yJwTJJLBvO2PydG7vtRrkyByt1WlwrzX9p7nyvwLyvOFyb8l8+fBG8Ak41cud508ybeAfFxnk1wTJ1Ckd3LTk7XB8unwbhzecP8BFi75CL7GQhCEPL9cdqgPKe/dcHom/9sPr4tmnW23xbZCbIQfFSdLWSKmh2W4VdfAbmhr6xsi3ibjbuXmxL7Hv6b/wJG5LBNi/wm0bLemnyaETE3X3O245rGVFE1fX+DTF3SE1mQhCEPD9cfe/jrdBO/dQIQhCEIXsJ1cty/qs/bY3nkhz4rcn9t/pEITDPEGb3SrfuxjJ3PWX2sTuhNRkIQhDyfXHejVjLcdiEIQhCDMiSHWJOO/5tEXhWfuYQhCEIXXLmSp2xzwF/wC5hNsEX3ITWZCEIQ8f1x15vtkIQhCEF6+N1RvCEIQhDcZ0/lx+H6mEIQgi+5CazIQhCHkuuOvk85CEIQhBca6C8IQhCEF87kxr4XMwhCEE1kJqEIQhDwXXHXyechCEIQgmMVAWEIQhCC+NyY/BdTCEIQXWF1mQhCEPPdcdfF5yEIQhCC47VJYQhCEIL43Jj8V1MIQhBdYXWIQhCHnuuOvi85CEIQhBMcqFsIQhCEF87kx+W6mEIQgusLrEIQhDx3XHTxechCEIQgvwCxYQhCEIJ43Jj8d1MIQhBdYXWIQhCHnuuOni85CEIQhPgSoSwhCEIQTxuTH57qYQhCC6x3xCbJs8d1x08XnIQhCEJ8O3bCEIQhBPG5MfjuphCEILrHfYvNdcfwvXthCbJ8VWrCEIQgnicmPzXUwhCEF1jvsXiuuP4Xr/AOAqVmCbIJ4nJj8V124Qgusd9i811x/C9f8AzvXvjOjH4rri98d9smDxXXH8f1/8/Xr4Dox+K64vfC6xCEIQ811x08fnITZCE+IqVmNPI5MfiuuL3wusQhCEPFdcdfL5yEIQhCfDVqwhCEIQXyOTH5rqYQhCC6wusQhCEPPdcdPL5yEIQhCC49UFYQhCEIL4HJj891MIQhBdY74hNkIeO64/m+shCbIQnwteMIQhCEF8jkx+O6mEIQgusd9iZCVSePpwOSuGMaFCpQo1kFR04tuv4G0F0RIY25Gt6fTG9ShUoUK1CmjJCE3IluS6cvgf9FmTg1vWMKlSpUr1kBVL4evArY44YLrHffke+F1iEIQhCEIQhCEIQhCEIQhCEIQhCEIQhCE2zZCEJsh3wusQhCEIQhCEIQhCEIQhCEIQhCEIQhCEIQhCEIQhCEILrHffke+F1iEIQhCEIQhCEIQmybITDPgnzd8d9hhNkxTBCEIQhCE2QhCEIQhCE2QhCEIQhBdY7z8j3guoQhCEIQhCEIQhCEIQhCEIQhCEIQhCEIQhCEIQhCEILrHefke8F1CbZshCEIQhCEIQhCEIQhCE2QhCEIQhCEIQhCEIQgusWN7j0MxoZjQzBmNDMGY0MxoZjQzGhmNDMaGYMwZjQzGhmNDMaGY0MxoZjQzGhmNDMaGYMxoZjQzBmNDMaGY0MxoZjQzGhmNDMaGY0MxoZjQzGhmNDMaGY0MxoZjQzGhmNDMaGY0JG9x6H//Z;" vertex="1" parent="1">
          <mxGeometry x="720" y="240" width="120" height="120" as="geometry" />
        </mxCell>
        <mxCell id="IwGxQNIVYgix1IoKI3rt-11" value="&lt;div&gt;Magnolia Author Instance&lt;br&gt;&lt;/div&gt;" style="text;html=1;strokeColor=none;fillColor=none;align=center;verticalAlign=middle;whiteSpace=wrap;rounded=0;fontStyle=1" vertex="1" parent="1">
          <mxGeometry x="730" y="371" width="100" height="30" as="geometry" />
        </mxCell>
        <mxCell id="IwGxQNIVYgix1IoKI3rt-12" value="Database instance" style="shape=cylinder3;whiteSpace=wrap;html=1;boundedLbl=1;backgroundOutline=1;size=15;rounded=0;glass=0;sketch=1;fillColor=#CCCCCC;fontStyle=1" vertex="1" parent="1">
          <mxGeometry x="1040" y="240" width="90" height="120" as="geometry" />
        </mxCell>
        <mxCell id="IwGxQNIVYgix1IoKI3rt-14" value="&lt;div align=&quot;left&quot;&gt;&lt;br&gt;&lt;/div&gt;" style="rounded=0;whiteSpace=wrap;html=1;fillColor=#CCCCCC;glass=0;sketch=1;" vertex="1" parent="1">
          <mxGeometry x="400" y="500" width="800" height="300" as="geometry" />
        </mxCell>
        <mxCell id="IwGxQNIVYgix1IoKI3rt-15" value="Public Subnet" style="text;html=1;strokeColor=none;fillColor=none;align=center;verticalAlign=middle;whiteSpace=wrap;rounded=0;fontStyle=1" vertex="1" parent="1">
          <mxGeometry x="410" y="510" width="100" height="30" as="geometry" />
        </mxCell>
        <mxCell id="IwGxQNIVYgix1IoKI3rt-25" value="" style="group" vertex="1" connectable="0" parent="1">
          <mxGeometry x="440" y="570" width="160" height="170" as="geometry" />
        </mxCell>
        <mxCell id="IwGxQNIVYgix1IoKI3rt-23" value="" style="rounded=0;whiteSpace=wrap;html=1;glass=0;sketch=1;fillColor=#CCCCCC;" vertex="1" parent="IwGxQNIVYgix1IoKI3rt-25">
          <mxGeometry width="160" height="170" as="geometry" />
        </mxCell>
        <mxCell id="IwGxQNIVYgix1IoKI3rt-17" value="" style="shape=image;verticalLabelPosition=bottom;labelBackgroundColor=default;verticalAlign=top;aspect=fixed;imageAspect=0;image=data:image/jpeg,/9j/4AAQSkZJRgABAQAAAQABAAD/4gKgSUNDX1BST0ZJTEUAAQEAAAKQbGNtcwQwAABtbnRyUkdCIFhZWiAAAAAAAAAAAAAAAABhY3NwQVBQTAAAAAAAAAAAAAAAAAAAAAAAAAAAAAAAAAAA9tYAAQAAAADTLWxjbXMAAAAAAAAAAAAAAAAAAAAAAAAAAAAAAAAAAAAAAAAAAAAAAAAAAAAAAAAAAAAAAAtkZXNjAAABCAAAADhjcHJ0AAABQAAAAE53dHB0AAABkAAAABRjaGFkAAABpAAAACxyWFlaAAAB0AAAABRiWFlaAAAB5AAAABRnWFlaAAAB+AAAABRyVFJDAAACDAAAACBnVFJDAAACLAAAACBiVFJDAAACTAAAACBjaHJtAAACbAAAACRtbHVjAAAAAAAAAAEAAAAMZW5VUwAAABwAAAAcAHMAUgBHAEIAIABiAHUAaQBsAHQALQBpAG4AAG1sdWMAAAAAAAAAAQAAAAxlblVTAAAAMgAAABwATgBvACAAYwBvAHAAeQByAGkAZwBoAHQALAAgAHUAcwBlACAAZgByAGUAZQBsAHkAAAAAWFlaIAAAAAAAAPbWAAEAAAAA0y1zZjMyAAAAAAABDEoAAAXj///zKgAAB5sAAP2H///7ov///aMAAAPYAADAlFhZWiAAAAAAAABvlAAAOO4AAAOQWFlaIAAAAAAAACSdAAAPgwAAtr5YWVogAAAAAAAAYqUAALeQAAAY3nBhcmEAAAAAAAMAAAACZmYAAPKnAAANWQAAE9AAAApbcGFyYQAAAAAAAwAAAAJmZgAA8qcAAA1ZAAAT0AAACltwYXJhAAAAAAADAAAAAmZmAADypwAADVkAABPQAAAKW2Nocm0AAAAAAAMAAAAAo9cAAFR7AABMzQAAmZoAACZmAAAPXP/bAEMABQMEBAQDBQQEBAUFBQYHDAgHBwcHDwsLCQwRDxISEQ8RERMWHBcTFBoVEREYIRgaHR0fHx8TFyIkIh4kHB4fHv/bAEMBBQUFBwYHDggIDh4UERQeHh4eHh4eHh4eHh4eHh4eHh4eHh4eHh4eHh4eHh4eHh4eHh4eHh4eHh4eHh4eHh4eHv/CABEIAZABkAMBIgACEQEDEQH/xAAcAAEBAAMAAwEAAAAAAAAAAAAAAQYHCAMEBQL/xAAVAQEBAAAAAAAAAAAAAAAAAAAAAf/aAAwDAQACEAMQAAAB1mFEKQqUAEKAlACUAJQAAlAAAAAABCgAFEsAAAAAAAAAAAAAAAAAAAAAAAFlCwAAAAAAAAAAAAAAAAAAAAAAAFE/UIoSiUAIoAAilBEoAASgAAAAAAAAAAULAAAAAAAAAAAAAAAAAAAAAAABZSywFIogCUAFIoh7B67IPZMWff8AkHrlIoiiKItPy+v75jLKPTPhvL4yKIoiiKIolCyiKIo2btPWW2E9R7Y9R7Y+Dzj0xoE+PnezciMVyf8AYAfn9DFtb7xHKk3/AKOX0V98+fluy80TBsv9oAAeLFsuGj8F6qxw52fX+SsURRFEqifqEURRtLbGp9sIAB63j90AAAAAPgffHO+8/qUAAAAAA+bz30tjZzw/f5WUEoFLKIoijaO19UbXQAAAeueww/0jPWK5OfsAAAAB+caMnYF7ZmT1vZAAANM686N5yUoiiULP1CKIo2htfVO1kAAGLnzNO+v+ViifW+UOgsl5k6NT3gAAMc+pzme38elij2NwaXp1MxXKkAAc39IaRMFUsUSqFgABtDa2qtqoAA0ZvPmg9AKUQDbGqM0N4hAANX6pzPDViiKIozHenNHS6AANR7c1UauUsUShZ+oRRFGz9q6q2qgADmDp/mE8CliiKJlmKZWb5CAAaGxPLMUIpYoijydQcwdPoAA1VtXVRq9SxRKpZRFgBs/amq9qIAA5h6e5iPCpYoiiZXiuVG+AgAGh8UyvFSKWKIo8nT3MPTyAANV7U1WawUsUShZ+oRRFGztp6s2mgADmPpzmQ8CliiKJleK5Ub3CAAaIxTK8VIpYoijydO8x9OIAA1ZtPVhrBSxRKoURYFhs3aerdpIAA5k6b5lPCpYoiiZVi2VG9QgAGicVyvFSKWKIo8nTfMnTaAANWbT1aaxUsUShZ+oRRFGzNpau2igADmbpnmY8KliiKJlWLZUb0CAAaKxXK8VIpYoijydNczdMoAA1btLVxrFSxRKoUQpAbM2jq7aKAAOZ+mOaDwqWFIomU4vlJvMIABovFsqxYhViiKP30zzP0wgADV20dXGs1LFEUWURRFGy9oav2ggADmnpbmk8KliiKJlOL5SbyCAAaMxbKsWIpYoijydL80dLoAA1ftDV5rNSxRKoWCUAbK2hrDZ6AAOauleazwhQAGUYvlJvEIABo3F8pxYBQAPJ0tzV0qgADV+0NYGtAoAoUQpFH0Pp45DJGODI2ODI8clIoiiKJ7PrjI2ODI2ODI2OD2PWsCiKIoZHjgyNjgyNjgyP5nzxFEUShZRFEURRFEURRFEURRFEURRFEURRFEURRFEURRFEUShZVRRFEURRFEURRFEURRFEURRFEURRFEURRFEURRFEqiVEVUURURVRRFRFVFEURRFEURRFEURRFEURRFEURRFEoWURRFEURRFEURRFEURRFEURRFEURRFEURRFEURRFEoH6hFEURRFEURRFEURRFEURRFEURRFEURRFEURRFEUSqf/xAAuEAAABQMEAQMCBgMAAAAAAAADBAUGIAABAjAyMzUVFDFQERMHEBIWIUAkQZD/2gAIAQEAAQUC+Sv7/IW+Tv7/ACFvk/8AfyFve/v8hb5O/v8AIWq/yNvkrVf+iECKNcNFVc6/b6vWaMq4UKCMDfRxtfK4SaoC1igq+VXb6vahElTDoTDMO+reTDDDEy9MXr0xevTF69MXr0xelUuBZMrG18sk1sHDFEm+mFaxxxwx/PLHHKx1ATDVKjZOFrXt9LwTG+fO0SbCcBQBcAC0BAwxMTrdTDNKTYOl6ytfHLRtV5fh/vir9UkpplSGSEcom4aK2hllHE6VHJmKIkzB0dFb5Ujpq6OUUsFRPMJxjQtV/eLA3xNBWHLEywJQvpraYCplSSMcMqKYQLp5fUUiQB8qqERk83O3vf3iwN/9P6W+us4E3FSJZY3xylabA3/BvUh9k3K1X94sDdoDjBAYDuRKDv8AupNos4Eoa+GWOeOlle2NjK8lgXu6k36guVKEuXHBMYTXSnrUuVve8mDvm4V/Ejc0YHNC/mnKBsgIhq4KmFoLasAmAqSkcUM/zLDjFhG84MTmU1oD0yrK/vFg75ORR8en3vfK8SZgUoZIGcDhOSgawJkzpkU2Zjb+LtlR8gnyewf6FiNqvJg75PEz99XmxDP1Dk+zN7YzZ5n7CxJ+4/5MbVf3iwt8lHP7qhNmZ/pW5PLP9S3NPz+0fk/d8bVeTC3SG5ptLvpO3vpg80n7vjaryYW+Q3NNpd9J299MLlk/d8bVf3iwt8huabS76Tt76YXLJ+79Rh7pDc02n3snZ3swuWT83ajD3SG5ptPvZOzvZhcsn5v1GHukNzTafeydnezC5ZPzdqMTdIbmm0+9k7O9mFyyfe7UYm6Q3NNqd7J197MLlk+92oxN0huabU72Tr72YXLJ97tRibpDc02p3snX3swuWT73ajF3SG5ptTvJOvvJhcsn1u1GLukNzTaneSdfeTC5ZPrdqMXdIbmm1O8k6+8mFyyfW7UYu6Q3NNq95J1d5MLlk+d2oxt0huabV7yTq7yYXLJ87tRjbpDc02r3knV3kwuWT53ahI8aJV51VrzqrXnVWvOqtedVa86q1e/1vMqOKWG86q151VrzqrXnVWvOqtedVaNDimRp2/i/nVWvOqtedVa86q151VrzqrR08aO/8Lf/xAAUEQEAAAAAAAAAAAAAAAAAAACQ/9oACAEDAQE/ARx//8QAFBEBAAAAAAAAAAAAAAAAAAAAkP/aAAgBAgEBPwEcf//EAD0QAAADBAYGBQsEAwAAAAAAAAECAwAEIDARcXKCscESITE0QZITIjJRUhQjM0BhYoGRoaLREEKQ4VBTc//aAAgBAQAGPwL+DehJI6lktLanFX46m3MecG1uK3wClqFUjp2i0SqCgIj7G6jkuNxtyN8RBtzHmBus4r/AtLUKEMQfeCj1R70yFN2doVtu6XIDegS5Ab0CXIDegS5Ab0CXIDPQggmA9Cb9od36AUoCIjsAGA7yPkxO7aZgHoOlN4lNbaJSgUO4IKDAAh3Cw+Y6I3iT1MJ3YfKU/Z2vk1A7YQPodAl4j/hgFbSeDe9qD5NQiimmHuloh0VCFOHcYKW1I9CbvT1fRhO7CDyT2ajfJhKYBAQ2gPqL5dziev8AibBujQL1Q7Rx2FbzZdNXiobb/UoThQk8cDhxrYyDwTROH1/QEXdMTm+gMCitC6/iHYWqX5wugrwULt/tuiXLZMGw3qD5dziUREaAUKJaWKg7k0SFmdGfqqB6M/cxnPQ0BTHzhh2FYEUC0eI3E00yC5aQHYPEo97Gd1rpvEHfPfLufqlNE8SB6YmtMcmEpgoMGoQnPl3P/CFfUw6i2o9qc93c5OmsoRMveYaGoBYylgrdh45Q/LUeU9GPvhQwGIYDAPEJekYQAA4i1AvIHH3A0m7Dxyh+WoFU6dsjaaCpFC95RpkLI0daiklYTnu7nIF2dqDvHEeBG6R4VMob2waTuqIBxL+0W1dRYvbJnJ63XVN2E2peFR0eBA7IQdIgoZM/eUWB2e6CL/tNwP8A3IeUQ2AfVUOua93c4xMQfPKdVP8ALCIjSI7YiPCI0HILJvKfZOFNUajyp2SB82O8LDSc30ipAaBbzg+eT6p/b7YwP/sTAZr3dzjFOnqoho/HjIXdBHsjpljQdAHb1zZSCp09VYNEco3U3eQQmvd3ON4U8Sph+sgC+NMwRmDwEKEh3U8KhR+sbpeymvd3OM9oZCFRsI16i4SCWgjdL2U17u5xqWhkIVGwjXqLhIJaCN0vZTXu7nGpaGQhUbCNeouEgloI3S9lNe7ucZ7QyEKjYRr1FwkEtBG6Xspr3dzjPaGQhUbCNeouEgloI3S9lNe7ucZ7QyEKjYRr1FwkEtBG6Xspr3dzjPaGQhUbCNeouEgloI3S9lNe7ucZ7QyEKjYRr1FwkEtBG6Xspr3dzjPaGQjUbCNaouEgloI3S9lNe7ucZ7QyEajYRrVFwkEtBG6Xspr3dzjPaGQjUbCNaouEgloI3S9lNe7ucZ7QyEajYRrVFwkEtBG6Xspr3dzjPaGQjUbCNaouEgloI3S9lNe7ucZ7QyEajYRrVFwkEtBG6Xspr1dzjPaGQjUbCNaouEgloI3W9lNerucZ7QyEajYRrVFwkEtBG63sppvJldDS26m3r7Qbeh5Qbeh5Qbeh5Qbeh5QbevtBhEeMgFkD6Jw2C29faDb0PKDb0PKDb0PKDb0PKDb0PKDCsubTOO0ZFINvQ8oNvQ8oNvQ8oNvQ8oNvQ8oNvX2gxfKVdPR2av4Lf//EACoQAAEDAwMEAwEBAAMBAAAAAAEAEVEgMfAhMKFBUGHBcYGx0ZEQQOHx/9oACAEBAAE/ISS51KcyU5kpzJTmSnMlOZKcyU5kpzJTmSnMlOZKcyU5kpzJTmSnMlOZKcyU5kpzJTmSnMlOZKcyU5kpzJTmSnMlOZKcyU5kpzJTmSnMlOZKcyU5kpzJTmSnMlOZKcyU5kpzJTmSnMlOZKBLjUq53G4I3PcRcK53G4I3PcRcI3dxsK53G4I3PcRcK53G4K49xuCNz3G4K41aBOJCcSE4kJxITiQnEil6Og34Vh/xH7Wm+D8rXTslk+Heb9bXgEQOgzjz1eByrQH4ftAnd+P7oM7YdfSXhthf1ui4Vxq0S8NbLVNPPPPAdoUEaWtBFgswDkoaHL1B366faFMR9X824QgEbAYUGZ6uBwhhET4xbhMpDVgYfb6RCAIDQgi1IsgE6bEjxceEMBnnwvbrwfoX4p8SJAcoESY/X/8ABDQJ6Az7fSLBZgGI2rgrjVwKrCzWiR4Nf3whQuo02v4h8bQk2ei/wPX9RWn+UJB6j/gzY3hknoEFHB1Z1vD3tmBYxptHzBHumOttSP5s3BXKuJVFXGQLgEMh/BtB1JkydwoY1bOp/wARpk0CaE+X6JguuS5JO7cDIH0CAw5GoBp0A2LCuVcT/qQAQACbmd8dADx8+hRv5pIuCOldwRuauB2SG0Ng6B1+x+V3BXKuHsxaOehBOYflPJZB62JUCgcdD87LVqUCODtlupYkYBHw76G5DRBMBxKjyX5G4deG1HYA1d+9D+fddhXGri7EC3rrX5pPhFhn6nb4igIfrV1+UI3Y21TwkbIAdK0DqfJgIpMO6P6P7QGj6B/9Ty10Bp4vGwGEMaR+h+1C4Vyrg1zUTnwHr9P4jFinInUmrXdwPI6g+CoZWl1H0a+pq2l0H2U5zr+A6AeBURAQAuCOiKIuH9L7f2tlB+sCR6quCuNXBriB3DiPLX9N9bBLfAvB0P4P9r0DxkXxp7bBCzD/AJr/AI5rY/8ACRH9quCuVcWuKT1/QbBxR0I8H1WQ/YL/AI/vYOELfiK+LVXBXGrj12enYwE68BHYwk18WquCuNXBrs1OxgJ14COxmJr4NVcFcq4Ndmp2MBOvAR2MxNfBqhcI3NXGrs9OxmJ15iOxmJr49ULhG5q4Vdnp2MxOvMR2MxNfAqhcI3NXCrs9OxiJ14iOxmJr4VULhG5q41dnp2MBOvAR2MxNfGqhcI3NXGrs9OxkJ15COxmJr41ULhG5q4Vdnp2MpOvKR2MxNfCqhcI3NXCrs9OxlJ15SOxmJr4VULhG5q41dnp2M5OvOR2MhNfGqhcI3NXGrspOxjJ14yOxmJr41ULhG5q4VdnJ2MZOvGR2MhNfCqhcI3NXCrsJOxnJ15yOxgJr41ULhG5q49dlJ2MpOvOR2MRNfHqhcI3NXHrsJOxlJ14SOxgJr49ULhG5qMGTTtF2+fleTn4WF+lhfpYX6WF+l5OfhG10Sc7Gr8+iCzhuq8nPwsL9LC/Swv0sL9LC/S0fr0QHYN02CILgLhYX6WF+lhfpYX6WF+l5OfhGDNr2gz/HxULhG57iLhG57iLhG57iLhG57iLhG57iLhG57iLhG57iLhG57iLhG57iLhG57iLhEF7JjCYwmMJjCYwmMJjCYwmMJjCYwmMJjCYwmMJjCYwmMJjCYwmMJjCYwmMJjCYwmMJjCYwmMJjCYwmMJjCYwmMJjCYwmMJjCYwmMJjCYwmMJjCYwmMIAvZf/9oADAMBAAIAAwAAABCkUUkEUEkEkEkEEkEEEEEEUEFEU000000000000000000000002U00000000000000000000001331203003w1001000000000012U0000000000000000000000000kEkkEEEkQkkEEEEAgEEEEEEUjDDXzylVzyxxjC1zzzznjDHDHHHF3zzzzzzzzzXzzzzzwnyx1kgAB3zzzzzjzzzzzDzzzzywAATDDDXzzwDSDDzzz3zjzzzz3zzywwzXzy0wAwDzzwgAABXzzgAARDDDzzynDDizzzx3zzzXzzzzzwgQxzzz0AAATzzwkAAB3zywAARTDBzzynzTyzzzx3zzzXzyzzzigQTTzz0AAADzzwEAAB3zzgAARLLLTzy3bDLDzzzXrbZXzzjL7qggxzzzkAgBDzzyEgAD3zzwABRjDBzzy3DDDDzzzHLLJ3zyzLLKZ47Tzyk445rzzyc447Xzzg45qooKYIJoIIJKJKKYIIILCDAIIZpLLLKKLLLLLLLLLLLLLLLLLKZjDDDDDDDDDDDDDDDDDDDDDDCAoDCKDCLBDDDDDDDDDDDDDDDCQiCCADDDDDDDDDDDDDDDDDDDCSAAAAAAAAAAAAAAAAAAAAAAAAD/8QAHREAAgMBAQEBAQAAAAAAAAAAARARIDAAIXAxQP/aAAgBAwEBPxD4LPT0965U9PThKLHTSe8U1nvO8XlTlNwcD/ELTx2/aC5YU5FisosZSixcsaFi5Y0LFyxoWLljQsXLGhYuWNCxcsaFj41//8QAHREAAgMBAQEBAQAAAAAAAAAAABEBICFAEDBgcP/aAAgBAgEBPxD+DO7+kfBcMdMdMdMXmkfaOKaYYYRTDBWwwyk3jim8cU0Y6wMYx1Yx1Yx3jmj2KKy8m7GOrGMmjGMdWMdEIRFUIRtVAoFFMMMMMMMMMMMMMMMM9z3P1H//xAApEAADAAADCAIDAQEBAAAAAAAAAREgYZEQITFBUaHw8TCBUHGxwUDh/9oACAEBAAE/EM/D5nvD3h7w94e8PeHvD3h7w94e8PeHvD3h7Q94e8PeHvD3h7w94e8PeHvD3h7w94e8PeHvD3h7w94e+PeHvD3h7494e8PeHvD3h7w94e+PeGfhcxNRkIQhCEIQhCEIQhCbIQhNkIQmybZthCEwTEmsjvn+R75CahCEIQhCEIQhCEIQhCEIQhCEIQhCEIQhCEIQhCEIQgmsjvn+R75C6jIQhCbIQhCEJtmyE/7u4O4eCbYQm2EITbCE2QhCE2QhCEIQhCEIQhCEIQhBNZHfP8j3yE1GQhCEIQhCEIQhCEIQhCEIQhCEIQhCEIQmybJsmFNZHdMhCEIQhCEIQhCEIQhCEIQhCEIQhCEIQhCEIQhCEIQTWR3z/IprITWeJuFaX2e8PeHvD3h7wV92pgzL3XmfsYmTVvh/qUNG8Mt6VDQFxh/djiteX8cjd8KayODjP6W8XeGq2+0SElV+LTYso+y8cxGF/sYkA+MNEXy98hNYhCEIIlf12VyrceIf4eMf4eMf4eMf4eMf4K0SNNlBpzczgQtMpgbfBJLe2Lt4nuQ+8+65Cgbz71uT7v0N3ChGj9JbsCWvRCz9p7jfZ7vdzRX9hWy9p7nvL7rkMwq4xsuKafBkIQiJHlae6l3hw+oqL+O8mUe4LKwU/wAAwtT24sj6RovNRqHc2vaijRXuw/Ztfdch6IzAzzTT3pkJ8CL7kJrMhCEIJ4fPHuKqUsrTHV823xN7yW8SGkJn1FyZH2b+JZ8cnvyQ4M+DsOB/w48pwzOv75kN5WF+H0MjvyrIF+3jmPp1b+k4fGubESp3JLwyH9NCE29RN9Wderb13IQhCEIQTWR3DIQhCHg+uKibFtamavNUnl0j9p3FnNv5EOKXvjo3zb8198UjeH3k5NH0N6LjU9yrSOe43jrc8uC4L5UpdwbIN5Nd1ue45cc4f/8AA1ye4hCEIQgmojuHi8H1/wCTBQcFvjcr1+dLndwpO9n9L6OPkLyRLGkbLqmQhCEIJrHfPF4Pr+E2GmCblv4r+2fPbCEId0juHi8f1+HxMKa4Noeltxndg/pjUvrgiMjUSzqX9CkDR63VNbn8a3SRCHVt7kNkzH24f0ZIOK/tCqwuDQ1SWojNXkhZOPc8n8Cpo591vXCf219GN/NNPo8SaiEX3PZMHh+vwUwupxJ6F/iXPoPXlz6yJwTJJLBvO2PydG7vtRrkyByt1WlwrzX9p7nyvwLyvOFyb8l8+fBG8Ak41cud508ybeAfFxnk1wTJ1Ckd3LTk7XB8unwbhzecP8BFi75CL7GQhCEPL9cdqgPKe/dcHom/9sPr4tmnW23xbZCbIQfFSdLWSKmh2W4VdfAbmhr6xsi3ibjbuXmxL7Hv6b/wJG5LBNi/wm0bLemnyaETE3X3O245rGVFE1fX+DTF3SE1mQhCEPD9cfe/jrdBO/dQIQhCEIXsJ1cty/qs/bY3nkhz4rcn9t/pEITDPEGb3SrfuxjJ3PWX2sTuhNRkIQhDyfXHejVjLcdiEIQhCDMiSHWJOO/5tEXhWfuYQhCEIXXLmSp2xzwF/wC5hNsEX3ITWZCEIQ8f1x15vtkIQhCEF6+N1RvCEIQhDcZ0/lx+H6mEIQgi+5CazIQhCHkuuOvk85CEIQhBca6C8IQhCEF87kxr4XMwhCEE1kJqEIQhDwXXHXyechCEIQgmMVAWEIQhCC+NyY/BdTCEIQXWF1mQhCEPPdcdfF5yEIQhCC47VJYQhCEIL43Jj8V1MIQhBdYXWIQhCHnuuOvi85CEIQhBMcqFsIQhCEF87kx+W6mEIQgusLrEIQhDx3XHTxechCEIQgvwCxYQhCEIJ43Jj8d1MIQhBdYXWIQhCHnuuOni85CEIQhPgSoSwhCEIQTxuTH57qYQhCC6x3xCbJs8d1x08XnIQhCEJ8O3bCEIQhBPG5MfjuphCEILrHfYvNdcfwvXthCbJ8VWrCEIQgnicmPzXUwhCEF1jvsXiuuP4Xr/AOAqVmCbIJ4nJj8V124Qgusd9i811x/C9f8AzvXvjOjH4rri98d9smDxXXH8f1/8/Xr4Dox+K64vfC6xCEIQ811x08fnITZCE+IqVmNPI5MfiuuL3wusQhCEPFdcdfL5yEIQhCfDVqwhCEIQXyOTH5rqYQhCC6wusQhCEPPdcdPL5yEIQhCC49UFYQhCEIL4HJj891MIQhBdY74hNkIeO64/m+shCbIQnwteMIQhCEF8jkx+O6mEIQgusd9iZCVSePpwOSuGMaFCpQo1kFR04tuv4G0F0RIY25Gt6fTG9ShUoUK1CmjJCE3IluS6cvgf9FmTg1vWMKlSpUr1kBVL4evArY44YLrHffke+F1iEIQhCEIQhCEIQhCEIQhCEIQhCEIQhCE2zZCEJsh3wusQhCEIQhCEIQhCEIQhCEIQhCEIQhCEIQhCEIQhCEILrHffke+F1iEIQhCEIQhCEIQmybITDPgnzd8d9hhNkxTBCEIQhCE2QhCEIQhCE2QhCEIQhBdY7z8j3guoQhCEIQhCEIQhCEIQhCEIQhCEIQhCEIQhCEIQhCEILrHefke8F1CbZshCEIQhCEIQhCEIQhCE2QhCEIQhCEIQhCEIQgusWN7j0MxoZjQzBmNDMGY0MxoZjQzGhmNDMaGYMwZjQzGhmNDMaGY0MxoZjQzGhmNDMaGYMxoZjQzBmNDMaGY0MxoZjQzGhmNDMaGY0MxoZjQzGhmNDMaGY0MxoZjQzGhmNDMaGY0JG9x6H//Z;" vertex="1" parent="IwGxQNIVYgix1IoKI3rt-25">
          <mxGeometry x="40" y="30" width="80" height="80" as="geometry" />
        </mxCell>
        <mxCell id="IwGxQNIVYgix1IoKI3rt-22" value="&lt;div&gt;Public Instance&lt;br&gt;&lt;/div&gt;" style="text;html=1;strokeColor=none;fillColor=none;align=center;verticalAlign=middle;whiteSpace=wrap;rounded=0;fontStyle=1" vertex="1" parent="IwGxQNIVYgix1IoKI3rt-25">
          <mxGeometry x="30" y="120" width="100" height="30" as="geometry" />
        </mxCell>
        <mxCell id="IwGxQNIVYgix1IoKI3rt-24" value="Availability Zone A" style="text;html=1;strokeColor=none;fillColor=none;align=center;verticalAlign=middle;whiteSpace=wrap;rounded=0;glass=0;sketch=1;" vertex="1" parent="IwGxQNIVYgix1IoKI3rt-25">
          <mxGeometry y="150" width="110" height="20" as="geometry" />
        </mxCell>
        <mxCell id="IwGxQNIVYgix1IoKI3rt-26" value="" style="group" vertex="1" connectable="0" parent="1">
          <mxGeometry x="632" y="570" width="160" height="170" as="geometry" />
        </mxCell>
        <mxCell id="IwGxQNIVYgix1IoKI3rt-27" value="" style="rounded=0;whiteSpace=wrap;html=1;glass=0;sketch=1;fillColor=#CCCCCC;" vertex="1" parent="IwGxQNIVYgix1IoKI3rt-26">
          <mxGeometry x="-9" width="160" height="170" as="geometry" />
        </mxCell>
        <mxCell id="IwGxQNIVYgix1IoKI3rt-28" value="" style="shape=image;verticalLabelPosition=bottom;labelBackgroundColor=default;verticalAlign=top;aspect=fixed;imageAspect=0;image=data:image/jpeg,/9j/4AAQSkZJRgABAQAAAQABAAD/4gKgSUNDX1BST0ZJTEUAAQEAAAKQbGNtcwQwAABtbnRyUkdCIFhZWiAAAAAAAAAAAAAAAABhY3NwQVBQTAAAAAAAAAAAAAAAAAAAAAAAAAAAAAAAAAAA9tYAAQAAAADTLWxjbXMAAAAAAAAAAAAAAAAAAAAAAAAAAAAAAAAAAAAAAAAAAAAAAAAAAAAAAAAAAAAAAAtkZXNjAAABCAAAADhjcHJ0AAABQAAAAE53dHB0AAABkAAAABRjaGFkAAABpAAAACxyWFlaAAAB0AAAABRiWFlaAAAB5AAAABRnWFlaAAAB+AAAABRyVFJDAAACDAAAACBnVFJDAAACLAAAACBiVFJDAAACTAAAACBjaHJtAAACbAAAACRtbHVjAAAAAAAAAAEAAAAMZW5VUwAAABwAAAAcAHMAUgBHAEIAIABiAHUAaQBsAHQALQBpAG4AAG1sdWMAAAAAAAAAAQAAAAxlblVTAAAAMgAAABwATgBvACAAYwBvAHAAeQByAGkAZwBoAHQALAAgAHUAcwBlACAAZgByAGUAZQBsAHkAAAAAWFlaIAAAAAAAAPbWAAEAAAAA0y1zZjMyAAAAAAABDEoAAAXj///zKgAAB5sAAP2H///7ov///aMAAAPYAADAlFhZWiAAAAAAAABvlAAAOO4AAAOQWFlaIAAAAAAAACSdAAAPgwAAtr5YWVogAAAAAAAAYqUAALeQAAAY3nBhcmEAAAAAAAMAAAACZmYAAPKnAAANWQAAE9AAAApbcGFyYQAAAAAAAwAAAAJmZgAA8qcAAA1ZAAAT0AAACltwYXJhAAAAAAADAAAAAmZmAADypwAADVkAABPQAAAKW2Nocm0AAAAAAAMAAAAAo9cAAFR7AABMzQAAmZoAACZmAAAPXP/bAEMABQMEBAQDBQQEBAUFBQYHDAgHBwcHDwsLCQwRDxISEQ8RERMWHBcTFBoVEREYIRgaHR0fHx8TFyIkIh4kHB4fHv/bAEMBBQUFBwYHDggIDh4UERQeHh4eHh4eHh4eHh4eHh4eHh4eHh4eHh4eHh4eHh4eHh4eHh4eHh4eHh4eHh4eHh4eHv/CABEIAZABkAMBIgACEQEDEQH/xAAcAAEBAAMAAwEAAAAAAAAAAAAAAQYHCAMEBQL/xAAVAQEBAAAAAAAAAAAAAAAAAAAAAf/aAAwDAQACEAMQAAAB1mFEKQqUAEKAlACUAJQAAlAAAAAABCgAFEsAAAAAAAAAAAAAAAAAAAAAAAFlCwAAAAAAAAAAAAAAAAAAAAAAAFE/UIoSiUAIoAAilBEoAASgAAAAAAAAAAULAAAAAAAAAAAAAAAAAAAAAAABZSywFIogCUAFIoh7B67IPZMWff8AkHrlIoiiKItPy+v75jLKPTPhvL4yKIoiiKIolCyiKIo2btPWW2E9R7Y9R7Y+Dzj0xoE+PnezciMVyf8AYAfn9DFtb7xHKk3/AKOX0V98+fluy80TBsv9oAAeLFsuGj8F6qxw52fX+SsURRFEqifqEURRtLbGp9sIAB63j90AAAAAPgffHO+8/qUAAAAAA+bz30tjZzw/f5WUEoFLKIoijaO19UbXQAAAeueww/0jPWK5OfsAAAAB+caMnYF7ZmT1vZAAANM686N5yUoiiULP1CKIo2htfVO1kAAGLnzNO+v+ViifW+UOgsl5k6NT3gAAMc+pzme38elij2NwaXp1MxXKkAAc39IaRMFUsUSqFgABtDa2qtqoAA0ZvPmg9AKUQDbGqM0N4hAANX6pzPDViiKIozHenNHS6AANR7c1UauUsUShZ+oRRFGz9q6q2qgADmDp/mE8CliiKJlmKZWb5CAAaGxPLMUIpYoijydQcwdPoAA1VtXVRq9SxRKpZRFgBs/amq9qIAA5h6e5iPCpYoiiZXiuVG+AgAGh8UyvFSKWKIo8nT3MPTyAANV7U1WawUsUShZ+oRRFGztp6s2mgADmPpzmQ8CliiKJleK5Ub3CAAaIxTK8VIpYoijydO8x9OIAA1ZtPVhrBSxRKoURYFhs3aerdpIAA5k6b5lPCpYoiiZVi2VG9QgAGicVyvFSKWKIo8nTfMnTaAANWbT1aaxUsUShZ+oRRFGzNpau2igADmbpnmY8KliiKJlWLZUb0CAAaKxXK8VIpYoijydNczdMoAA1btLVxrFSxRKoUQpAbM2jq7aKAAOZ+mOaDwqWFIomU4vlJvMIABovFsqxYhViiKP30zzP0wgADV20dXGs1LFEUWURRFGy9oav2ggADmnpbmk8KliiKJlOL5SbyCAAaMxbKsWIpYoijydL80dLoAA1ftDV5rNSxRKoWCUAbK2hrDZ6AAOauleazwhQAGUYvlJvEIABo3F8pxYBQAPJ0tzV0qgADV+0NYGtAoAoUQpFH0Pp45DJGODI2ODI8clIoiiKJ7PrjI2ODI2ODI2OD2PWsCiKIoZHjgyNjgyNjgyP5nzxFEUShZRFEURRFEURRFEURRFEURRFEURRFEURRFEURRFEUShZVRRFEURRFEURRFEURRFEURRFEURRFEURRFEURRFEqiVEVUURURVRRFRFVFEURRFEURRFEURRFEURRFEURRFEoWURRFEURRFEURRFEURRFEURRFEURRFEURRFEURRFEoH6hFEURRFEURRFEURRFEURRFEURRFEURRFEURRFEUSqf/xAAuEAAABQMEAQMCBgMAAAAAAAADBAUGIAABAjAyMzUVFDFQERMHEBIWIUAkQZD/2gAIAQEAAQUC+Sv7/IW+Tv7/ACFvk/8AfyFve/v8hb5O/v8AIWq/yNvkrVf+iECKNcNFVc6/b6vWaMq4UKCMDfRxtfK4SaoC1igq+VXb6vahElTDoTDMO+reTDDDEy9MXr0xevTF69MXr0xelUuBZMrG18sk1sHDFEm+mFaxxxwx/PLHHKx1ATDVKjZOFrXt9LwTG+fO0SbCcBQBcAC0BAwxMTrdTDNKTYOl6ytfHLRtV5fh/vir9UkpplSGSEcom4aK2hllHE6VHJmKIkzB0dFb5Ujpq6OUUsFRPMJxjQtV/eLA3xNBWHLEywJQvpraYCplSSMcMqKYQLp5fUUiQB8qqERk83O3vf3iwN/9P6W+us4E3FSJZY3xylabA3/BvUh9k3K1X94sDdoDjBAYDuRKDv8AupNos4Eoa+GWOeOlle2NjK8lgXu6k36guVKEuXHBMYTXSnrUuVve8mDvm4V/Ejc0YHNC/mnKBsgIhq4KmFoLasAmAqSkcUM/zLDjFhG84MTmU1oD0yrK/vFg75ORR8en3vfK8SZgUoZIGcDhOSgawJkzpkU2Zjb+LtlR8gnyewf6FiNqvJg75PEz99XmxDP1Dk+zN7YzZ5n7CxJ+4/5MbVf3iwt8lHP7qhNmZ/pW5PLP9S3NPz+0fk/d8bVeTC3SG5ptLvpO3vpg80n7vjaryYW+Q3NNpd9J299MLlk/d8bVf3iwt8huabS76Tt76YXLJ+79Rh7pDc02n3snZ3swuWT83ajD3SG5ptPvZOzvZhcsn5v1GHukNzTafeydnezC5ZPzdqMTdIbmm0+9k7O9mFyyfe7UYm6Q3NNqd7J197MLlk+92oxN0huabU72Tr72YXLJ97tRibpDc02p3snX3swuWT73ajF3SG5ptTvJOvvJhcsn1u1GLukNzTaneSdfeTC5ZPrdqMXdIbmm1O8k6+8mFyyfW7UYu6Q3NNq95J1d5MLlk+d2oxt0huabV7yTq7yYXLJ87tRjbpDc02r3knV3kwuWT53ahI8aJV51VrzqrXnVWvOqtedVa86q1e/1vMqOKWG86q151VrzqrXnVWvOqtedVaNDimRp2/i/nVWvOqtedVa86q151VrzqrR08aO/8Lf/xAAUEQEAAAAAAAAAAAAAAAAAAACQ/9oACAEDAQE/ARx//8QAFBEBAAAAAAAAAAAAAAAAAAAAkP/aAAgBAgEBPwEcf//EAD0QAAADBAYGBQsEAwAAAAAAAAECAwAEIDARcXKCscESITE0QZITIjJRUhQjM0BhYoGRoaLREEKQ4VBTc//aAAgBAQAGPwL+DehJI6lktLanFX46m3MecG1uK3wClqFUjp2i0SqCgIj7G6jkuNxtyN8RBtzHmBus4r/AtLUKEMQfeCj1R70yFN2doVtu6XIDegS5Ab0CXIDegS5Ab0CXIDPQggmA9Cb9od36AUoCIjsAGA7yPkxO7aZgHoOlN4lNbaJSgUO4IKDAAh3Cw+Y6I3iT1MJ3YfKU/Z2vk1A7YQPodAl4j/hgFbSeDe9qD5NQiimmHuloh0VCFOHcYKW1I9CbvT1fRhO7CDyT2ajfJhKYBAQ2gPqL5dziev8AibBujQL1Q7Rx2FbzZdNXiobb/UoThQk8cDhxrYyDwTROH1/QEXdMTm+gMCitC6/iHYWqX5wugrwULt/tuiXLZMGw3qD5dziUREaAUKJaWKg7k0SFmdGfqqB6M/cxnPQ0BTHzhh2FYEUC0eI3E00yC5aQHYPEo97Gd1rpvEHfPfLufqlNE8SB6YmtMcmEpgoMGoQnPl3P/CFfUw6i2o9qc93c5OmsoRMveYaGoBYylgrdh45Q/LUeU9GPvhQwGIYDAPEJekYQAA4i1AvIHH3A0m7Dxyh+WoFU6dsjaaCpFC95RpkLI0daiklYTnu7nIF2dqDvHEeBG6R4VMob2waTuqIBxL+0W1dRYvbJnJ63XVN2E2peFR0eBA7IQdIgoZM/eUWB2e6CL/tNwP8A3IeUQ2AfVUOua93c4xMQfPKdVP8ALCIjSI7YiPCI0HILJvKfZOFNUajyp2SB82O8LDSc30ipAaBbzg+eT6p/b7YwP/sTAZr3dzjFOnqoho/HjIXdBHsjpljQdAHb1zZSCp09VYNEco3U3eQQmvd3ON4U8Sph+sgC+NMwRmDwEKEh3U8KhR+sbpeymvd3OM9oZCFRsI16i4SCWgjdL2U17u5xqWhkIVGwjXqLhIJaCN0vZTXu7nGpaGQhUbCNeouEgloI3S9lNe7ucZ7QyEKjYRr1FwkEtBG6Xspr3dzjPaGQhUbCNeouEgloI3S9lNe7ucZ7QyEKjYRr1FwkEtBG6Xspr3dzjPaGQhUbCNeouEgloI3S9lNe7ucZ7QyEKjYRr1FwkEtBG6Xspr3dzjPaGQjUbCNaouEgloI3S9lNe7ucZ7QyEajYRrVFwkEtBG6Xspr3dzjPaGQjUbCNaouEgloI3S9lNe7ucZ7QyEajYRrVFwkEtBG6Xspr3dzjPaGQjUbCNaouEgloI3S9lNe7ucZ7QyEajYRrVFwkEtBG6Xspr1dzjPaGQjUbCNaouEgloI3W9lNerucZ7QyEajYRrVFwkEtBG63sppvJldDS26m3r7Qbeh5Qbeh5Qbeh5Qbeh5QbevtBhEeMgFkD6Jw2C29faDb0PKDb0PKDb0PKDb0PKDb0PKDCsubTOO0ZFINvQ8oNvQ8oNvQ8oNvQ8oNvQ8oNvX2gxfKVdPR2av4Lf//EACoQAAEDAwMEAwEBAAMBAAAAAAEAEVEgMfAhMKFBUGHBcYGx0ZEQQOHx/9oACAEBAAE/ISS51KcyU5kpzJTmSnMlOZKcyU5kpzJTmSnMlOZKcyU5kpzJTmSnMlOZKcyU5kpzJTmSnMlOZKcyU5kpzJTmSnMlOZKcyU5kpzJTmSnMlOZKcyU5kpzJTmSnMlOZKcyU5kpzJTmSnMlOZKBLjUq53G4I3PcRcK53G4I3PcRcI3dxsK53G4I3PcRcK53G4K49xuCNz3G4K41aBOJCcSE4kJxITiQnEil6Og34Vh/xH7Wm+D8rXTslk+Heb9bXgEQOgzjz1eByrQH4ftAnd+P7oM7YdfSXhthf1ui4Vxq0S8NbLVNPPPPAdoUEaWtBFgswDkoaHL1B366faFMR9X824QgEbAYUGZ6uBwhhET4xbhMpDVgYfb6RCAIDQgi1IsgE6bEjxceEMBnnwvbrwfoX4p8SJAcoESY/X/8ABDQJ6Az7fSLBZgGI2rgrjVwKrCzWiR4Nf3whQuo02v4h8bQk2ei/wPX9RWn+UJB6j/gzY3hknoEFHB1Z1vD3tmBYxptHzBHumOttSP5s3BXKuJVFXGQLgEMh/BtB1JkydwoY1bOp/wARpk0CaE+X6JguuS5JO7cDIH0CAw5GoBp0A2LCuVcT/qQAQACbmd8dADx8+hRv5pIuCOldwRuauB2SG0Ng6B1+x+V3BXKuHsxaOehBOYflPJZB62JUCgcdD87LVqUCODtlupYkYBHw76G5DRBMBxKjyX5G4deG1HYA1d+9D+fddhXGri7EC3rrX5pPhFhn6nb4igIfrV1+UI3Y21TwkbIAdK0DqfJgIpMO6P6P7QGj6B/9Ty10Bp4vGwGEMaR+h+1C4Vyrg1zUTnwHr9P4jFinInUmrXdwPI6g+CoZWl1H0a+pq2l0H2U5zr+A6AeBURAQAuCOiKIuH9L7f2tlB+sCR6quCuNXBriB3DiPLX9N9bBLfAvB0P4P9r0DxkXxp7bBCzD/AJr/AI5rY/8ACRH9quCuVcWuKT1/QbBxR0I8H1WQ/YL/AI/vYOELfiK+LVXBXGrj12enYwE68BHYwk18WquCuNXBrs1OxgJ14COxmJr4NVcFcq4Ndmp2MBOvAR2MxNfBqhcI3NXGrs9OxmJ15iOxmJr49ULhG5q4Vdnp2MxOvMR2MxNfAqhcI3NXCrs9OxiJ14iOxmJr4VULhG5q41dnp2MBOvAR2MxNfGqhcI3NXGrs9OxkJ15COxmJr41ULhG5q4Vdnp2MpOvKR2MxNfCqhcI3NXCrs9OxlJ15SOxmJr4VULhG5q41dnp2M5OvOR2MhNfGqhcI3NXGrspOxjJ14yOxmJr41ULhG5q4VdnJ2MZOvGR2MhNfCqhcI3NXCrsJOxnJ15yOxgJr41ULhG5q49dlJ2MpOvOR2MRNfHqhcI3NXHrsJOxlJ14SOxgJr49ULhG5qMGTTtF2+fleTn4WF+lhfpYX6WF+l5OfhG10Sc7Gr8+iCzhuq8nPwsL9LC/Swv0sL9LC/S0fr0QHYN02CILgLhYX6WF+lhfpYX6WF+l5OfhGDNr2gz/HxULhG57iLhG57iLhG57iLhG57iLhG57iLhG57iLhG57iLhG57iLhG57iLhG57iLhEF7JjCYwmMJjCYwmMJjCYwmMJjCYwmMJjCYwmMJjCYwmMJjCYwmMJjCYwmMJjCYwmMJjCYwmMJjCYwmMJjCYwmMJjCYwmMJjCYwmMJjCYwmMJjCYwmMIAvZf/9oADAMBAAIAAwAAABCkUUkEUEkEkEkEEkEEEEEEUEFEU000000000000000000000002U00000000000000000000001331203003w1001000000000012U0000000000000000000000000kEkkEEEkQkkEEEEAgEEEEEEUjDDXzylVzyxxjC1zzzznjDHDHHHF3zzzzzzzzzXzzzzzwnyx1kgAB3zzzzzjzzzzzDzzzzywAATDDDXzzwDSDDzzz3zjzzzz3zzywwzXzy0wAwDzzwgAABXzzgAARDDDzzynDDizzzx3zzzXzzzzzwgQxzzz0AAATzzwkAAB3zywAARTDBzzynzTyzzzx3zzzXzyzzzigQTTzz0AAADzzwEAAB3zzgAARLLLTzy3bDLDzzzXrbZXzzjL7qggxzzzkAgBDzzyEgAD3zzwABRjDBzzy3DDDDzzzHLLJ3zyzLLKZ47Tzyk445rzzyc447Xzzg45qooKYIJoIIJKJKKYIIILCDAIIZpLLLKKLLLLLLLLLLLLLLLLLKZjDDDDDDDDDDDDDDDDDDDDDDCAoDCKDCLBDDDDDDDDDDDDDDDCQiCCADDDDDDDDDDDDDDDDDDDCSAAAAAAAAAAAAAAAAAAAAAAAAD/8QAHREAAgMBAQEBAQAAAAAAAAAAARARIDAAIXAxQP/aAAgBAwEBPxD4LPT0965U9PThKLHTSe8U1nvO8XlTlNwcD/ELTx2/aC5YU5FisosZSixcsaFi5Y0LFyxoWLljQsXLGhYuWNCxcsaFj41//8QAHREAAgMBAQEBAQAAAAAAAAAAABEBICFAEDBgcP/aAAgBAgEBPxD+DO7+kfBcMdMdMdMXmkfaOKaYYYRTDBWwwyk3jim8cU0Y6wMYx1Yx1Yx3jmj2KKy8m7GOrGMmjGMdWMdEIRFUIRtVAoFFMMMMMMMMMMMMMMMM9z3P1H//xAApEAADAAADCAIDAQEBAAAAAAAAAREgYZEQITFBUaHw8TCBUHGxwUDh/9oACAEBAAE/EM/D5nvD3h7w94e8PeHvD3h7w94e8PeHvD3h7Q94e8PeHvD3h7w94e8PeHvD3h7w94e8PeHvD3h7w94e+PeHvD3h7494e8PeHvD3h7w94e+PeGfhcxNRkIQhCEIQhCEIQhCbIQhNkIQmybZthCEwTEmsjvn+R75CahCEIQhCEIQhCEIQhCEIQhCEIQhCEIQhCEIQhCEIQgmsjvn+R75C6jIQhCbIQhCEJtmyE/7u4O4eCbYQm2EITbCE2QhCE2QhCEIQhCEIQhCEIQhBNZHfP8j3yE1GQhCEIQhCEIQhCEIQhCEIQhCEIQhCEIQmybJsmFNZHdMhCEIQhCEIQhCEIQhCEIQhCEIQhCEIQhCEIQhCEIQTWR3z/IprITWeJuFaX2e8PeHvD3h7wV92pgzL3XmfsYmTVvh/qUNG8Mt6VDQFxh/djiteX8cjd8KayODjP6W8XeGq2+0SElV+LTYso+y8cxGF/sYkA+MNEXy98hNYhCEIIlf12VyrceIf4eMf4eMf4eMf4eMf4K0SNNlBpzczgQtMpgbfBJLe2Lt4nuQ+8+65Cgbz71uT7v0N3ChGj9JbsCWvRCz9p7jfZ7vdzRX9hWy9p7nvL7rkMwq4xsuKafBkIQiJHlae6l3hw+oqL+O8mUe4LKwU/wAAwtT24sj6RovNRqHc2vaijRXuw/Ztfdch6IzAzzTT3pkJ8CL7kJrMhCEIJ4fPHuKqUsrTHV823xN7yW8SGkJn1FyZH2b+JZ8cnvyQ4M+DsOB/w48pwzOv75kN5WF+H0MjvyrIF+3jmPp1b+k4fGubESp3JLwyH9NCE29RN9Wderb13IQhCEIQTWR3DIQhCHg+uKibFtamavNUnl0j9p3FnNv5EOKXvjo3zb8198UjeH3k5NH0N6LjU9yrSOe43jrc8uC4L5UpdwbIN5Nd1ue45cc4f/8AA1ye4hCEIQgmojuHi8H1/wCTBQcFvjcr1+dLndwpO9n9L6OPkLyRLGkbLqmQhCEIJrHfPF4Pr+E2GmCblv4r+2fPbCEId0juHi8f1+HxMKa4Noeltxndg/pjUvrgiMjUSzqX9CkDR63VNbn8a3SRCHVt7kNkzH24f0ZIOK/tCqwuDQ1SWojNXkhZOPc8n8Cpo591vXCf219GN/NNPo8SaiEX3PZMHh+vwUwupxJ6F/iXPoPXlz6yJwTJJLBvO2PydG7vtRrkyByt1WlwrzX9p7nyvwLyvOFyb8l8+fBG8Ak41cud508ybeAfFxnk1wTJ1Ckd3LTk7XB8unwbhzecP8BFi75CL7GQhCEPL9cdqgPKe/dcHom/9sPr4tmnW23xbZCbIQfFSdLWSKmh2W4VdfAbmhr6xsi3ibjbuXmxL7Hv6b/wJG5LBNi/wm0bLemnyaETE3X3O245rGVFE1fX+DTF3SE1mQhCEPD9cfe/jrdBO/dQIQhCEIXsJ1cty/qs/bY3nkhz4rcn9t/pEITDPEGb3SrfuxjJ3PWX2sTuhNRkIQhDyfXHejVjLcdiEIQhCDMiSHWJOO/5tEXhWfuYQhCEIXXLmSp2xzwF/wC5hNsEX3ITWZCEIQ8f1x15vtkIQhCEF6+N1RvCEIQhDcZ0/lx+H6mEIQgi+5CazIQhCHkuuOvk85CEIQhBca6C8IQhCEF87kxr4XMwhCEE1kJqEIQhDwXXHXyechCEIQgmMVAWEIQhCC+NyY/BdTCEIQXWF1mQhCEPPdcdfF5yEIQhCC47VJYQhCEIL43Jj8V1MIQhBdYXWIQhCHnuuOvi85CEIQhBMcqFsIQhCEF87kx+W6mEIQgusLrEIQhDx3XHTxechCEIQgvwCxYQhCEIJ43Jj8d1MIQhBdYXWIQhCHnuuOni85CEIQhPgSoSwhCEIQTxuTH57qYQhCC6x3xCbJs8d1x08XnIQhCEJ8O3bCEIQhBPG5MfjuphCEILrHfYvNdcfwvXthCbJ8VWrCEIQgnicmPzXUwhCEF1jvsXiuuP4Xr/AOAqVmCbIJ4nJj8V124Qgusd9i811x/C9f8AzvXvjOjH4rri98d9smDxXXH8f1/8/Xr4Dox+K64vfC6xCEIQ811x08fnITZCE+IqVmNPI5MfiuuL3wusQhCEPFdcdfL5yEIQhCfDVqwhCEIQXyOTH5rqYQhCC6wusQhCEPPdcdPL5yEIQhCC49UFYQhCEIL4HJj891MIQhBdY74hNkIeO64/m+shCbIQnwteMIQhCEF8jkx+O6mEIQgusd9iZCVSePpwOSuGMaFCpQo1kFR04tuv4G0F0RIY25Gt6fTG9ShUoUK1CmjJCE3IluS6cvgf9FmTg1vWMKlSpUr1kBVL4evArY44YLrHffke+F1iEIQhCEIQhCEIQhCEIQhCEIQhCEIQhCE2zZCEJsh3wusQhCEIQhCEIQhCEIQhCEIQhCEIQhCEIQhCEIQhCEILrHffke+F1iEIQhCEIQhCEIQmybITDPgnzd8d9hhNkxTBCEIQhCE2QhCEIQhCE2QhCEIQhBdY7z8j3guoQhCEIQhCEIQhCEIQhCEIQhCEIQhCEIQhCEIQhCEILrHefke8F1CbZshCEIQhCEIQhCEIQhCE2QhCEIQhCEIQhCEIQgusWN7j0MxoZjQzBmNDMGY0MxoZjQzGhmNDMaGYMwZjQzGhmNDMaGY0MxoZjQzGhmNDMaGYMxoZjQzBmNDMaGY0MxoZjQzGhmNDMaGY0MxoZjQzGhmNDMaGY0MxoZjQzGhmNDMaGY0JG9x6H//Z;" vertex="1" parent="IwGxQNIVYgix1IoKI3rt-26">
          <mxGeometry x="40" y="30" width="80" height="80" as="geometry" />
        </mxCell>
        <mxCell id="IwGxQNIVYgix1IoKI3rt-29" value="&lt;div&gt;Public Instance&lt;br&gt;&lt;/div&gt;" style="text;html=1;strokeColor=none;fillColor=none;align=center;verticalAlign=middle;whiteSpace=wrap;rounded=0;fontStyle=1" vertex="1" parent="IwGxQNIVYgix1IoKI3rt-26">
          <mxGeometry x="30" y="120" width="100" height="30" as="geometry" />
        </mxCell>
        <mxCell id="IwGxQNIVYgix1IoKI3rt-30" value="Availability Zone B" style="text;html=1;strokeColor=none;fillColor=none;align=center;verticalAlign=middle;whiteSpace=wrap;rounded=0;glass=0;sketch=1;" vertex="1" parent="IwGxQNIVYgix1IoKI3rt-26">
          <mxGeometry y="150" width="110" height="20" as="geometry" />
        </mxCell>
        <mxCell id="IwGxQNIVYgix1IoKI3rt-31" value="" style="group" vertex="1" connectable="0" parent="1">
          <mxGeometry x="814" y="570" width="160" height="170" as="geometry" />
        </mxCell>
        <mxCell id="IwGxQNIVYgix1IoKI3rt-32" value="" style="rounded=0;whiteSpace=wrap;html=1;glass=0;sketch=1;fillColor=#CCCCCC;" vertex="1" parent="IwGxQNIVYgix1IoKI3rt-31">
          <mxGeometry width="160" height="170" as="geometry" />
        </mxCell>
        <mxCell id="IwGxQNIVYgix1IoKI3rt-33" value="" style="shape=image;verticalLabelPosition=bottom;labelBackgroundColor=default;verticalAlign=top;aspect=fixed;imageAspect=0;image=data:image/jpeg,/9j/4AAQSkZJRgABAQAAAQABAAD/4gKgSUNDX1BST0ZJTEUAAQEAAAKQbGNtcwQwAABtbnRyUkdCIFhZWiAAAAAAAAAAAAAAAABhY3NwQVBQTAAAAAAAAAAAAAAAAAAAAAAAAAAAAAAAAAAA9tYAAQAAAADTLWxjbXMAAAAAAAAAAAAAAAAAAAAAAAAAAAAAAAAAAAAAAAAAAAAAAAAAAAAAAAAAAAAAAAtkZXNjAAABCAAAADhjcHJ0AAABQAAAAE53dHB0AAABkAAAABRjaGFkAAABpAAAACxyWFlaAAAB0AAAABRiWFlaAAAB5AAAABRnWFlaAAAB+AAAABRyVFJDAAACDAAAACBnVFJDAAACLAAAACBiVFJDAAACTAAAACBjaHJtAAACbAAAACRtbHVjAAAAAAAAAAEAAAAMZW5VUwAAABwAAAAcAHMAUgBHAEIAIABiAHUAaQBsAHQALQBpAG4AAG1sdWMAAAAAAAAAAQAAAAxlblVTAAAAMgAAABwATgBvACAAYwBvAHAAeQByAGkAZwBoAHQALAAgAHUAcwBlACAAZgByAGUAZQBsAHkAAAAAWFlaIAAAAAAAAPbWAAEAAAAA0y1zZjMyAAAAAAABDEoAAAXj///zKgAAB5sAAP2H///7ov///aMAAAPYAADAlFhZWiAAAAAAAABvlAAAOO4AAAOQWFlaIAAAAAAAACSdAAAPgwAAtr5YWVogAAAAAAAAYqUAALeQAAAY3nBhcmEAAAAAAAMAAAACZmYAAPKnAAANWQAAE9AAAApbcGFyYQAAAAAAAwAAAAJmZgAA8qcAAA1ZAAAT0AAACltwYXJhAAAAAAADAAAAAmZmAADypwAADVkAABPQAAAKW2Nocm0AAAAAAAMAAAAAo9cAAFR7AABMzQAAmZoAACZmAAAPXP/bAEMABQMEBAQDBQQEBAUFBQYHDAgHBwcHDwsLCQwRDxISEQ8RERMWHBcTFBoVEREYIRgaHR0fHx8TFyIkIh4kHB4fHv/bAEMBBQUFBwYHDggIDh4UERQeHh4eHh4eHh4eHh4eHh4eHh4eHh4eHh4eHh4eHh4eHh4eHh4eHh4eHh4eHh4eHh4eHv/CABEIAZABkAMBIgACEQEDEQH/xAAcAAEBAAMAAwEAAAAAAAAAAAAAAQYHCAMEBQL/xAAVAQEBAAAAAAAAAAAAAAAAAAAAAf/aAAwDAQACEAMQAAAB1mFEKQqUAEKAlACUAJQAAlAAAAAABCgAFEsAAAAAAAAAAAAAAAAAAAAAAAFlCwAAAAAAAAAAAAAAAAAAAAAAAFE/UIoSiUAIoAAilBEoAASgAAAAAAAAAAULAAAAAAAAAAAAAAAAAAAAAAABZSywFIogCUAFIoh7B67IPZMWff8AkHrlIoiiKItPy+v75jLKPTPhvL4yKIoiiKIolCyiKIo2btPWW2E9R7Y9R7Y+Dzj0xoE+PnezciMVyf8AYAfn9DFtb7xHKk3/AKOX0V98+fluy80TBsv9oAAeLFsuGj8F6qxw52fX+SsURRFEqifqEURRtLbGp9sIAB63j90AAAAAPgffHO+8/qUAAAAAA+bz30tjZzw/f5WUEoFLKIoijaO19UbXQAAAeueww/0jPWK5OfsAAAAB+caMnYF7ZmT1vZAAANM686N5yUoiiULP1CKIo2htfVO1kAAGLnzNO+v+ViifW+UOgsl5k6NT3gAAMc+pzme38elij2NwaXp1MxXKkAAc39IaRMFUsUSqFgABtDa2qtqoAA0ZvPmg9AKUQDbGqM0N4hAANX6pzPDViiKIozHenNHS6AANR7c1UauUsUShZ+oRRFGz9q6q2qgADmDp/mE8CliiKJlmKZWb5CAAaGxPLMUIpYoijydQcwdPoAA1VtXVRq9SxRKpZRFgBs/amq9qIAA5h6e5iPCpYoiiZXiuVG+AgAGh8UyvFSKWKIo8nT3MPTyAANV7U1WawUsUShZ+oRRFGztp6s2mgADmPpzmQ8CliiKJleK5Ub3CAAaIxTK8VIpYoijydO8x9OIAA1ZtPVhrBSxRKoURYFhs3aerdpIAA5k6b5lPCpYoiiZVi2VG9QgAGicVyvFSKWKIo8nTfMnTaAANWbT1aaxUsUShZ+oRRFGzNpau2igADmbpnmY8KliiKJlWLZUb0CAAaKxXK8VIpYoijydNczdMoAA1btLVxrFSxRKoUQpAbM2jq7aKAAOZ+mOaDwqWFIomU4vlJvMIABovFsqxYhViiKP30zzP0wgADV20dXGs1LFEUWURRFGy9oav2ggADmnpbmk8KliiKJlOL5SbyCAAaMxbKsWIpYoijydL80dLoAA1ftDV5rNSxRKoWCUAbK2hrDZ6AAOauleazwhQAGUYvlJvEIABo3F8pxYBQAPJ0tzV0qgADV+0NYGtAoAoUQpFH0Pp45DJGODI2ODI8clIoiiKJ7PrjI2ODI2ODI2OD2PWsCiKIoZHjgyNjgyNjgyP5nzxFEUShZRFEURRFEURRFEURRFEURRFEURRFEURRFEURRFEUShZVRRFEURRFEURRFEURRFEURRFEURRFEURRFEURRFEqiVEVUURURVRRFRFVFEURRFEURRFEURRFEURRFEURRFEoWURRFEURRFEURRFEURRFEURRFEURRFEURRFEURRFEoH6hFEURRFEURRFEURRFEURRFEURRFEURRFEURRFEUSqf/xAAuEAAABQMEAQMCBgMAAAAAAAADBAUGIAABAjAyMzUVFDFQERMHEBIWIUAkQZD/2gAIAQEAAQUC+Sv7/IW+Tv7/ACFvk/8AfyFve/v8hb5O/v8AIWq/yNvkrVf+iECKNcNFVc6/b6vWaMq4UKCMDfRxtfK4SaoC1igq+VXb6vahElTDoTDMO+reTDDDEy9MXr0xevTF69MXr0xelUuBZMrG18sk1sHDFEm+mFaxxxwx/PLHHKx1ATDVKjZOFrXt9LwTG+fO0SbCcBQBcAC0BAwxMTrdTDNKTYOl6ytfHLRtV5fh/vir9UkpplSGSEcom4aK2hllHE6VHJmKIkzB0dFb5Ujpq6OUUsFRPMJxjQtV/eLA3xNBWHLEywJQvpraYCplSSMcMqKYQLp5fUUiQB8qqERk83O3vf3iwN/9P6W+us4E3FSJZY3xylabA3/BvUh9k3K1X94sDdoDjBAYDuRKDv8AupNos4Eoa+GWOeOlle2NjK8lgXu6k36guVKEuXHBMYTXSnrUuVve8mDvm4V/Ejc0YHNC/mnKBsgIhq4KmFoLasAmAqSkcUM/zLDjFhG84MTmU1oD0yrK/vFg75ORR8en3vfK8SZgUoZIGcDhOSgawJkzpkU2Zjb+LtlR8gnyewf6FiNqvJg75PEz99XmxDP1Dk+zN7YzZ5n7CxJ+4/5MbVf3iwt8lHP7qhNmZ/pW5PLP9S3NPz+0fk/d8bVeTC3SG5ptLvpO3vpg80n7vjaryYW+Q3NNpd9J299MLlk/d8bVf3iwt8huabS76Tt76YXLJ+79Rh7pDc02n3snZ3swuWT83ajD3SG5ptPvZOzvZhcsn5v1GHukNzTafeydnezC5ZPzdqMTdIbmm0+9k7O9mFyyfe7UYm6Q3NNqd7J197MLlk+92oxN0huabU72Tr72YXLJ97tRibpDc02p3snX3swuWT73ajF3SG5ptTvJOvvJhcsn1u1GLukNzTaneSdfeTC5ZPrdqMXdIbmm1O8k6+8mFyyfW7UYu6Q3NNq95J1d5MLlk+d2oxt0huabV7yTq7yYXLJ87tRjbpDc02r3knV3kwuWT53ahI8aJV51VrzqrXnVWvOqtedVa86q1e/1vMqOKWG86q151VrzqrXnVWvOqtedVaNDimRp2/i/nVWvOqtedVa86q151VrzqrR08aO/8Lf/xAAUEQEAAAAAAAAAAAAAAAAAAACQ/9oACAEDAQE/ARx//8QAFBEBAAAAAAAAAAAAAAAAAAAAkP/aAAgBAgEBPwEcf//EAD0QAAADBAYGBQsEAwAAAAAAAAECAwAEIDARcXKCscESITE0QZITIjJRUhQjM0BhYoGRoaLREEKQ4VBTc//aAAgBAQAGPwL+DehJI6lktLanFX46m3MecG1uK3wClqFUjp2i0SqCgIj7G6jkuNxtyN8RBtzHmBus4r/AtLUKEMQfeCj1R70yFN2doVtu6XIDegS5Ab0CXIDegS5Ab0CXIDPQggmA9Cb9od36AUoCIjsAGA7yPkxO7aZgHoOlN4lNbaJSgUO4IKDAAh3Cw+Y6I3iT1MJ3YfKU/Z2vk1A7YQPodAl4j/hgFbSeDe9qD5NQiimmHuloh0VCFOHcYKW1I9CbvT1fRhO7CDyT2ajfJhKYBAQ2gPqL5dziev8AibBujQL1Q7Rx2FbzZdNXiobb/UoThQk8cDhxrYyDwTROH1/QEXdMTm+gMCitC6/iHYWqX5wugrwULt/tuiXLZMGw3qD5dziUREaAUKJaWKg7k0SFmdGfqqB6M/cxnPQ0BTHzhh2FYEUC0eI3E00yC5aQHYPEo97Gd1rpvEHfPfLufqlNE8SB6YmtMcmEpgoMGoQnPl3P/CFfUw6i2o9qc93c5OmsoRMveYaGoBYylgrdh45Q/LUeU9GPvhQwGIYDAPEJekYQAA4i1AvIHH3A0m7Dxyh+WoFU6dsjaaCpFC95RpkLI0daiklYTnu7nIF2dqDvHEeBG6R4VMob2waTuqIBxL+0W1dRYvbJnJ63XVN2E2peFR0eBA7IQdIgoZM/eUWB2e6CL/tNwP8A3IeUQ2AfVUOua93c4xMQfPKdVP8ALCIjSI7YiPCI0HILJvKfZOFNUajyp2SB82O8LDSc30ipAaBbzg+eT6p/b7YwP/sTAZr3dzjFOnqoho/HjIXdBHsjpljQdAHb1zZSCp09VYNEco3U3eQQmvd3ON4U8Sph+sgC+NMwRmDwEKEh3U8KhR+sbpeymvd3OM9oZCFRsI16i4SCWgjdL2U17u5xqWhkIVGwjXqLhIJaCN0vZTXu7nGpaGQhUbCNeouEgloI3S9lNe7ucZ7QyEKjYRr1FwkEtBG6Xspr3dzjPaGQhUbCNeouEgloI3S9lNe7ucZ7QyEKjYRr1FwkEtBG6Xspr3dzjPaGQhUbCNeouEgloI3S9lNe7ucZ7QyEKjYRr1FwkEtBG6Xspr3dzjPaGQjUbCNaouEgloI3S9lNe7ucZ7QyEajYRrVFwkEtBG6Xspr3dzjPaGQjUbCNaouEgloI3S9lNe7ucZ7QyEajYRrVFwkEtBG6Xspr3dzjPaGQjUbCNaouEgloI3S9lNe7ucZ7QyEajYRrVFwkEtBG6Xspr1dzjPaGQjUbCNaouEgloI3W9lNerucZ7QyEajYRrVFwkEtBG63sppvJldDS26m3r7Qbeh5Qbeh5Qbeh5Qbeh5QbevtBhEeMgFkD6Jw2C29faDb0PKDb0PKDb0PKDb0PKDb0PKDCsubTOO0ZFINvQ8oNvQ8oNvQ8oNvQ8oNvQ8oNvX2gxfKVdPR2av4Lf//EACoQAAEDAwMEAwEBAAMBAAAAAAEAEVEgMfAhMKFBUGHBcYGx0ZEQQOHx/9oACAEBAAE/ISS51KcyU5kpzJTmSnMlOZKcyU5kpzJTmSnMlOZKcyU5kpzJTmSnMlOZKcyU5kpzJTmSnMlOZKcyU5kpzJTmSnMlOZKcyU5kpzJTmSnMlOZKcyU5kpzJTmSnMlOZKcyU5kpzJTmSnMlOZKBLjUq53G4I3PcRcK53G4I3PcRcI3dxsK53G4I3PcRcK53G4K49xuCNz3G4K41aBOJCcSE4kJxITiQnEil6Og34Vh/xH7Wm+D8rXTslk+Heb9bXgEQOgzjz1eByrQH4ftAnd+P7oM7YdfSXhthf1ui4Vxq0S8NbLVNPPPPAdoUEaWtBFgswDkoaHL1B366faFMR9X824QgEbAYUGZ6uBwhhET4xbhMpDVgYfb6RCAIDQgi1IsgE6bEjxceEMBnnwvbrwfoX4p8SJAcoESY/X/8ABDQJ6Az7fSLBZgGI2rgrjVwKrCzWiR4Nf3whQuo02v4h8bQk2ei/wPX9RWn+UJB6j/gzY3hknoEFHB1Z1vD3tmBYxptHzBHumOttSP5s3BXKuJVFXGQLgEMh/BtB1JkydwoY1bOp/wARpk0CaE+X6JguuS5JO7cDIH0CAw5GoBp0A2LCuVcT/qQAQACbmd8dADx8+hRv5pIuCOldwRuauB2SG0Ng6B1+x+V3BXKuHsxaOehBOYflPJZB62JUCgcdD87LVqUCODtlupYkYBHw76G5DRBMBxKjyX5G4deG1HYA1d+9D+fddhXGri7EC3rrX5pPhFhn6nb4igIfrV1+UI3Y21TwkbIAdK0DqfJgIpMO6P6P7QGj6B/9Ty10Bp4vGwGEMaR+h+1C4Vyrg1zUTnwHr9P4jFinInUmrXdwPI6g+CoZWl1H0a+pq2l0H2U5zr+A6AeBURAQAuCOiKIuH9L7f2tlB+sCR6quCuNXBriB3DiPLX9N9bBLfAvB0P4P9r0DxkXxp7bBCzD/AJr/AI5rY/8ACRH9quCuVcWuKT1/QbBxR0I8H1WQ/YL/AI/vYOELfiK+LVXBXGrj12enYwE68BHYwk18WquCuNXBrs1OxgJ14COxmJr4NVcFcq4Ndmp2MBOvAR2MxNfBqhcI3NXGrs9OxmJ15iOxmJr49ULhG5q4Vdnp2MxOvMR2MxNfAqhcI3NXCrs9OxiJ14iOxmJr4VULhG5q41dnp2MBOvAR2MxNfGqhcI3NXGrs9OxkJ15COxmJr41ULhG5q4Vdnp2MpOvKR2MxNfCqhcI3NXCrs9OxlJ15SOxmJr4VULhG5q41dnp2M5OvOR2MhNfGqhcI3NXGrspOxjJ14yOxmJr41ULhG5q4VdnJ2MZOvGR2MhNfCqhcI3NXCrsJOxnJ15yOxgJr41ULhG5q49dlJ2MpOvOR2MRNfHqhcI3NXHrsJOxlJ14SOxgJr49ULhG5qMGTTtF2+fleTn4WF+lhfpYX6WF+l5OfhG10Sc7Gr8+iCzhuq8nPwsL9LC/Swv0sL9LC/S0fr0QHYN02CILgLhYX6WF+lhfpYX6WF+l5OfhGDNr2gz/HxULhG57iLhG57iLhG57iLhG57iLhG57iLhG57iLhG57iLhG57iLhG57iLhG57iLhEF7JjCYwmMJjCYwmMJjCYwmMJjCYwmMJjCYwmMJjCYwmMJjCYwmMJjCYwmMJjCYwmMJjCYwmMJjCYwmMJjCYwmMJjCYwmMJjCYwmMJjCYwmMJjCYwmMIAvZf/9oADAMBAAIAAwAAABCkUUkEUEkEkEkEEkEEEEEEUEFEU000000000000000000000002U00000000000000000000001331203003w1001000000000012U0000000000000000000000000kEkkEEEkQkkEEEEAgEEEEEEUjDDXzylVzyxxjC1zzzznjDHDHHHF3zzzzzzzzzXzzzzzwnyx1kgAB3zzzzzjzzzzzDzzzzywAATDDDXzzwDSDDzzz3zjzzzz3zzywwzXzy0wAwDzzwgAABXzzgAARDDDzzynDDizzzx3zzzXzzzzzwgQxzzz0AAATzzwkAAB3zywAARTDBzzynzTyzzzx3zzzXzyzzzigQTTzz0AAADzzwEAAB3zzgAARLLLTzy3bDLDzzzXrbZXzzjL7qggxzzzkAgBDzzyEgAD3zzwABRjDBzzy3DDDDzzzHLLJ3zyzLLKZ47Tzyk445rzzyc447Xzzg45qooKYIJoIIJKJKKYIIILCDAIIZpLLLKKLLLLLLLLLLLLLLLLLKZjDDDDDDDDDDDDDDDDDDDDDDCAoDCKDCLBDDDDDDDDDDDDDDDCQiCCADDDDDDDDDDDDDDDDDDDCSAAAAAAAAAAAAAAAAAAAAAAAAD/8QAHREAAgMBAQEBAQAAAAAAAAAAARARIDAAIXAxQP/aAAgBAwEBPxD4LPT0965U9PThKLHTSe8U1nvO8XlTlNwcD/ELTx2/aC5YU5FisosZSixcsaFi5Y0LFyxoWLljQsXLGhYuWNCxcsaFj41//8QAHREAAgMBAQEBAQAAAAAAAAAAABEBICFAEDBgcP/aAAgBAgEBPxD+DO7+kfBcMdMdMdMXmkfaOKaYYYRTDBWwwyk3jim8cU0Y6wMYx1Yx1Yx3jmj2KKy8m7GOrGMmjGMdWMdEIRFUIRtVAoFFMMMMMMMMMMMMMMMM9z3P1H//xAApEAADAAADCAIDAQEBAAAAAAAAAREgYZEQITFBUaHw8TCBUHGxwUDh/9oACAEBAAE/EM/D5nvD3h7w94e8PeHvD3h7w94e8PeHvD3h7Q94e8PeHvD3h7w94e8PeHvD3h7w94e8PeHvD3h7w94e+PeHvD3h7494e8PeHvD3h7w94e+PeGfhcxNRkIQhCEIQhCEIQhCbIQhNkIQmybZthCEwTEmsjvn+R75CahCEIQhCEIQhCEIQhCEIQhCEIQhCEIQhCEIQhCEIQgmsjvn+R75C6jIQhCbIQhCEJtmyE/7u4O4eCbYQm2EITbCE2QhCE2QhCEIQhCEIQhCEIQhBNZHfP8j3yE1GQhCEIQhCEIQhCEIQhCEIQhCEIQhCEIQmybJsmFNZHdMhCEIQhCEIQhCEIQhCEIQhCEIQhCEIQhCEIQhCEIQTWR3z/IprITWeJuFaX2e8PeHvD3h7wV92pgzL3XmfsYmTVvh/qUNG8Mt6VDQFxh/djiteX8cjd8KayODjP6W8XeGq2+0SElV+LTYso+y8cxGF/sYkA+MNEXy98hNYhCEIIlf12VyrceIf4eMf4eMf4eMf4eMf4K0SNNlBpzczgQtMpgbfBJLe2Lt4nuQ+8+65Cgbz71uT7v0N3ChGj9JbsCWvRCz9p7jfZ7vdzRX9hWy9p7nvL7rkMwq4xsuKafBkIQiJHlae6l3hw+oqL+O8mUe4LKwU/wAAwtT24sj6RovNRqHc2vaijRXuw/Ztfdch6IzAzzTT3pkJ8CL7kJrMhCEIJ4fPHuKqUsrTHV823xN7yW8SGkJn1FyZH2b+JZ8cnvyQ4M+DsOB/w48pwzOv75kN5WF+H0MjvyrIF+3jmPp1b+k4fGubESp3JLwyH9NCE29RN9Wderb13IQhCEIQTWR3DIQhCHg+uKibFtamavNUnl0j9p3FnNv5EOKXvjo3zb8198UjeH3k5NH0N6LjU9yrSOe43jrc8uC4L5UpdwbIN5Nd1ue45cc4f/8AA1ye4hCEIQgmojuHi8H1/wCTBQcFvjcr1+dLndwpO9n9L6OPkLyRLGkbLqmQhCEIJrHfPF4Pr+E2GmCblv4r+2fPbCEId0juHi8f1+HxMKa4Noeltxndg/pjUvrgiMjUSzqX9CkDR63VNbn8a3SRCHVt7kNkzH24f0ZIOK/tCqwuDQ1SWojNXkhZOPc8n8Cpo591vXCf219GN/NNPo8SaiEX3PZMHh+vwUwupxJ6F/iXPoPXlz6yJwTJJLBvO2PydG7vtRrkyByt1WlwrzX9p7nyvwLyvOFyb8l8+fBG8Ak41cud508ybeAfFxnk1wTJ1Ckd3LTk7XB8unwbhzecP8BFi75CL7GQhCEPL9cdqgPKe/dcHom/9sPr4tmnW23xbZCbIQfFSdLWSKmh2W4VdfAbmhr6xsi3ibjbuXmxL7Hv6b/wJG5LBNi/wm0bLemnyaETE3X3O245rGVFE1fX+DTF3SE1mQhCEPD9cfe/jrdBO/dQIQhCEIXsJ1cty/qs/bY3nkhz4rcn9t/pEITDPEGb3SrfuxjJ3PWX2sTuhNRkIQhDyfXHejVjLcdiEIQhCDMiSHWJOO/5tEXhWfuYQhCEIXXLmSp2xzwF/wC5hNsEX3ITWZCEIQ8f1x15vtkIQhCEF6+N1RvCEIQhDcZ0/lx+H6mEIQgi+5CazIQhCHkuuOvk85CEIQhBca6C8IQhCEF87kxr4XMwhCEE1kJqEIQhDwXXHXyechCEIQgmMVAWEIQhCC+NyY/BdTCEIQXWF1mQhCEPPdcdfF5yEIQhCC47VJYQhCEIL43Jj8V1MIQhBdYXWIQhCHnuuOvi85CEIQhBMcqFsIQhCEF87kx+W6mEIQgusLrEIQhDx3XHTxechCEIQgvwCxYQhCEIJ43Jj8d1MIQhBdYXWIQhCHnuuOni85CEIQhPgSoSwhCEIQTxuTH57qYQhCC6x3xCbJs8d1x08XnIQhCEJ8O3bCEIQhBPG5MfjuphCEILrHfYvNdcfwvXthCbJ8VWrCEIQgnicmPzXUwhCEF1jvsXiuuP4Xr/AOAqVmCbIJ4nJj8V124Qgusd9i811x/C9f8AzvXvjOjH4rri98d9smDxXXH8f1/8/Xr4Dox+K64vfC6xCEIQ811x08fnITZCE+IqVmNPI5MfiuuL3wusQhCEPFdcdfL5yEIQhCfDVqwhCEIQXyOTH5rqYQhCC6wusQhCEPPdcdPL5yEIQhCC49UFYQhCEIL4HJj891MIQhBdY74hNkIeO64/m+shCbIQnwteMIQhCEF8jkx+O6mEIQgusd9iZCVSePpwOSuGMaFCpQo1kFR04tuv4G0F0RIY25Gt6fTG9ShUoUK1CmjJCE3IluS6cvgf9FmTg1vWMKlSpUr1kBVL4evArY44YLrHffke+F1iEIQhCEIQhCEIQhCEIQhCEIQhCEIQhCE2zZCEJsh3wusQhCEIQhCEIQhCEIQhCEIQhCEIQhCEIQhCEIQhCEILrHffke+F1iEIQhCEIQhCEIQmybITDPgnzd8d9hhNkxTBCEIQhCE2QhCEIQhCE2QhCEIQhBdY7z8j3guoQhCEIQhCEIQhCEIQhCEIQhCEIQhCEIQhCEIQhCEILrHefke8F1CbZshCEIQhCEIQhCEIQhCE2QhCEIQhCEIQhCEIQgusWN7j0MxoZjQzBmNDMGY0MxoZjQzGhmNDMaGYMwZjQzGhmNDMaGY0MxoZjQzGhmNDMaGYMxoZjQzBmNDMaGY0MxoZjQzGhmNDMaGY0MxoZjQzGhmNDMaGY0MxoZjQzGhmNDMaGY0JG9x6H//Z;" vertex="1" parent="IwGxQNIVYgix1IoKI3rt-31">
          <mxGeometry x="40" y="30" width="80" height="80" as="geometry" />
        </mxCell>
        <mxCell id="IwGxQNIVYgix1IoKI3rt-34" value="&lt;div&gt;Public Instance&lt;br&gt;&lt;/div&gt;" style="text;html=1;strokeColor=none;fillColor=none;align=center;verticalAlign=middle;whiteSpace=wrap;rounded=0;fontStyle=1" vertex="1" parent="IwGxQNIVYgix1IoKI3rt-31">
          <mxGeometry x="30" y="120" width="100" height="30" as="geometry" />
        </mxCell>
        <mxCell id="IwGxQNIVYgix1IoKI3rt-35" value="Availability Zone C" style="text;html=1;strokeColor=none;fillColor=none;align=center;verticalAlign=middle;whiteSpace=wrap;rounded=0;glass=0;sketch=1;" vertex="1" parent="IwGxQNIVYgix1IoKI3rt-31">
          <mxGeometry y="150" width="110" height="20" as="geometry" />
        </mxCell>
        <mxCell id="IwGxQNIVYgix1IoKI3rt-36" value="" style="group" vertex="1" connectable="0" parent="1">
          <mxGeometry x="1014" y="570" width="160" height="170" as="geometry" />
        </mxCell>
        <mxCell id="IwGxQNIVYgix1IoKI3rt-37" value="" style="rounded=0;whiteSpace=wrap;html=1;glass=0;sketch=1;fillColor=#CCCCCC;" vertex="1" parent="IwGxQNIVYgix1IoKI3rt-36">
          <mxGeometry width="160" height="170" as="geometry" />
        </mxCell>
        <mxCell id="IwGxQNIVYgix1IoKI3rt-38" value="" style="shape=image;verticalLabelPosition=bottom;labelBackgroundColor=default;verticalAlign=top;aspect=fixed;imageAspect=0;image=data:image/jpeg,/9j/4AAQSkZJRgABAQAAAQABAAD/4gKgSUNDX1BST0ZJTEUAAQEAAAKQbGNtcwQwAABtbnRyUkdCIFhZWiAAAAAAAAAAAAAAAABhY3NwQVBQTAAAAAAAAAAAAAAAAAAAAAAAAAAAAAAAAAAA9tYAAQAAAADTLWxjbXMAAAAAAAAAAAAAAAAAAAAAAAAAAAAAAAAAAAAAAAAAAAAAAAAAAAAAAAAAAAAAAAtkZXNjAAABCAAAADhjcHJ0AAABQAAAAE53dHB0AAABkAAAABRjaGFkAAABpAAAACxyWFlaAAAB0AAAABRiWFlaAAAB5AAAABRnWFlaAAAB+AAAABRyVFJDAAACDAAAACBnVFJDAAACLAAAACBiVFJDAAACTAAAACBjaHJtAAACbAAAACRtbHVjAAAAAAAAAAEAAAAMZW5VUwAAABwAAAAcAHMAUgBHAEIAIABiAHUAaQBsAHQALQBpAG4AAG1sdWMAAAAAAAAAAQAAAAxlblVTAAAAMgAAABwATgBvACAAYwBvAHAAeQByAGkAZwBoAHQALAAgAHUAcwBlACAAZgByAGUAZQBsAHkAAAAAWFlaIAAAAAAAAPbWAAEAAAAA0y1zZjMyAAAAAAABDEoAAAXj///zKgAAB5sAAP2H///7ov///aMAAAPYAADAlFhZWiAAAAAAAABvlAAAOO4AAAOQWFlaIAAAAAAAACSdAAAPgwAAtr5YWVogAAAAAAAAYqUAALeQAAAY3nBhcmEAAAAAAAMAAAACZmYAAPKnAAANWQAAE9AAAApbcGFyYQAAAAAAAwAAAAJmZgAA8qcAAA1ZAAAT0AAACltwYXJhAAAAAAADAAAAAmZmAADypwAADVkAABPQAAAKW2Nocm0AAAAAAAMAAAAAo9cAAFR7AABMzQAAmZoAACZmAAAPXP/bAEMABQMEBAQDBQQEBAUFBQYHDAgHBwcHDwsLCQwRDxISEQ8RERMWHBcTFBoVEREYIRgaHR0fHx8TFyIkIh4kHB4fHv/bAEMBBQUFBwYHDggIDh4UERQeHh4eHh4eHh4eHh4eHh4eHh4eHh4eHh4eHh4eHh4eHh4eHh4eHh4eHh4eHh4eHh4eHv/CABEIAZABkAMBIgACEQEDEQH/xAAcAAEBAAMAAwEAAAAAAAAAAAAAAQYHCAMEBQL/xAAVAQEBAAAAAAAAAAAAAAAAAAAAAf/aAAwDAQACEAMQAAAB1mFEKQqUAEKAlACUAJQAAlAAAAAABCgAFEsAAAAAAAAAAAAAAAAAAAAAAAFlCwAAAAAAAAAAAAAAAAAAAAAAAFE/UIoSiUAIoAAilBEoAASgAAAAAAAAAAULAAAAAAAAAAAAAAAAAAAAAAABZSywFIogCUAFIoh7B67IPZMWff8AkHrlIoiiKItPy+v75jLKPTPhvL4yKIoiiKIolCyiKIo2btPWW2E9R7Y9R7Y+Dzj0xoE+PnezciMVyf8AYAfn9DFtb7xHKk3/AKOX0V98+fluy80TBsv9oAAeLFsuGj8F6qxw52fX+SsURRFEqifqEURRtLbGp9sIAB63j90AAAAAPgffHO+8/qUAAAAAA+bz30tjZzw/f5WUEoFLKIoijaO19UbXQAAAeueww/0jPWK5OfsAAAAB+caMnYF7ZmT1vZAAANM686N5yUoiiULP1CKIo2htfVO1kAAGLnzNO+v+ViifW+UOgsl5k6NT3gAAMc+pzme38elij2NwaXp1MxXKkAAc39IaRMFUsUSqFgABtDa2qtqoAA0ZvPmg9AKUQDbGqM0N4hAANX6pzPDViiKIozHenNHS6AANR7c1UauUsUShZ+oRRFGz9q6q2qgADmDp/mE8CliiKJlmKZWb5CAAaGxPLMUIpYoijydQcwdPoAA1VtXVRq9SxRKpZRFgBs/amq9qIAA5h6e5iPCpYoiiZXiuVG+AgAGh8UyvFSKWKIo8nT3MPTyAANV7U1WawUsUShZ+oRRFGztp6s2mgADmPpzmQ8CliiKJleK5Ub3CAAaIxTK8VIpYoijydO8x9OIAA1ZtPVhrBSxRKoURYFhs3aerdpIAA5k6b5lPCpYoiiZVi2VG9QgAGicVyvFSKWKIo8nTfMnTaAANWbT1aaxUsUShZ+oRRFGzNpau2igADmbpnmY8KliiKJlWLZUb0CAAaKxXK8VIpYoijydNczdMoAA1btLVxrFSxRKoUQpAbM2jq7aKAAOZ+mOaDwqWFIomU4vlJvMIABovFsqxYhViiKP30zzP0wgADV20dXGs1LFEUWURRFGy9oav2ggADmnpbmk8KliiKJlOL5SbyCAAaMxbKsWIpYoijydL80dLoAA1ftDV5rNSxRKoWCUAbK2hrDZ6AAOauleazwhQAGUYvlJvEIABo3F8pxYBQAPJ0tzV0qgADV+0NYGtAoAoUQpFH0Pp45DJGODI2ODI8clIoiiKJ7PrjI2ODI2ODI2OD2PWsCiKIoZHjgyNjgyNjgyP5nzxFEUShZRFEURRFEURRFEURRFEURRFEURRFEURRFEURRFEUShZVRRFEURRFEURRFEURRFEURRFEURRFEURRFEURRFEqiVEVUURURVRRFRFVFEURRFEURRFEURRFEURRFEURRFEoWURRFEURRFEURRFEURRFEURRFEURRFEURRFEURRFEoH6hFEURRFEURRFEURRFEURRFEURRFEURRFEURRFEUSqf/xAAuEAAABQMEAQMCBgMAAAAAAAADBAUGIAABAjAyMzUVFDFQERMHEBIWIUAkQZD/2gAIAQEAAQUC+Sv7/IW+Tv7/ACFvk/8AfyFve/v8hb5O/v8AIWq/yNvkrVf+iECKNcNFVc6/b6vWaMq4UKCMDfRxtfK4SaoC1igq+VXb6vahElTDoTDMO+reTDDDEy9MXr0xevTF69MXr0xelUuBZMrG18sk1sHDFEm+mFaxxxwx/PLHHKx1ATDVKjZOFrXt9LwTG+fO0SbCcBQBcAC0BAwxMTrdTDNKTYOl6ytfHLRtV5fh/vir9UkpplSGSEcom4aK2hllHE6VHJmKIkzB0dFb5Ujpq6OUUsFRPMJxjQtV/eLA3xNBWHLEywJQvpraYCplSSMcMqKYQLp5fUUiQB8qqERk83O3vf3iwN/9P6W+us4E3FSJZY3xylabA3/BvUh9k3K1X94sDdoDjBAYDuRKDv8AupNos4Eoa+GWOeOlle2NjK8lgXu6k36guVKEuXHBMYTXSnrUuVve8mDvm4V/Ejc0YHNC/mnKBsgIhq4KmFoLasAmAqSkcUM/zLDjFhG84MTmU1oD0yrK/vFg75ORR8en3vfK8SZgUoZIGcDhOSgawJkzpkU2Zjb+LtlR8gnyewf6FiNqvJg75PEz99XmxDP1Dk+zN7YzZ5n7CxJ+4/5MbVf3iwt8lHP7qhNmZ/pW5PLP9S3NPz+0fk/d8bVeTC3SG5ptLvpO3vpg80n7vjaryYW+Q3NNpd9J299MLlk/d8bVf3iwt8huabS76Tt76YXLJ+79Rh7pDc02n3snZ3swuWT83ajD3SG5ptPvZOzvZhcsn5v1GHukNzTafeydnezC5ZPzdqMTdIbmm0+9k7O9mFyyfe7UYm6Q3NNqd7J197MLlk+92oxN0huabU72Tr72YXLJ97tRibpDc02p3snX3swuWT73ajF3SG5ptTvJOvvJhcsn1u1GLukNzTaneSdfeTC5ZPrdqMXdIbmm1O8k6+8mFyyfW7UYu6Q3NNq95J1d5MLlk+d2oxt0huabV7yTq7yYXLJ87tRjbpDc02r3knV3kwuWT53ahI8aJV51VrzqrXnVWvOqtedVa86q1e/1vMqOKWG86q151VrzqrXnVWvOqtedVaNDimRp2/i/nVWvOqtedVa86q151VrzqrR08aO/8Lf/xAAUEQEAAAAAAAAAAAAAAAAAAACQ/9oACAEDAQE/ARx//8QAFBEBAAAAAAAAAAAAAAAAAAAAkP/aAAgBAgEBPwEcf//EAD0QAAADBAYGBQsEAwAAAAAAAAECAwAEIDARcXKCscESITE0QZITIjJRUhQjM0BhYoGRoaLREEKQ4VBTc//aAAgBAQAGPwL+DehJI6lktLanFX46m3MecG1uK3wClqFUjp2i0SqCgIj7G6jkuNxtyN8RBtzHmBus4r/AtLUKEMQfeCj1R70yFN2doVtu6XIDegS5Ab0CXIDegS5Ab0CXIDPQggmA9Cb9od36AUoCIjsAGA7yPkxO7aZgHoOlN4lNbaJSgUO4IKDAAh3Cw+Y6I3iT1MJ3YfKU/Z2vk1A7YQPodAl4j/hgFbSeDe9qD5NQiimmHuloh0VCFOHcYKW1I9CbvT1fRhO7CDyT2ajfJhKYBAQ2gPqL5dziev8AibBujQL1Q7Rx2FbzZdNXiobb/UoThQk8cDhxrYyDwTROH1/QEXdMTm+gMCitC6/iHYWqX5wugrwULt/tuiXLZMGw3qD5dziUREaAUKJaWKg7k0SFmdGfqqB6M/cxnPQ0BTHzhh2FYEUC0eI3E00yC5aQHYPEo97Gd1rpvEHfPfLufqlNE8SB6YmtMcmEpgoMGoQnPl3P/CFfUw6i2o9qc93c5OmsoRMveYaGoBYylgrdh45Q/LUeU9GPvhQwGIYDAPEJekYQAA4i1AvIHH3A0m7Dxyh+WoFU6dsjaaCpFC95RpkLI0daiklYTnu7nIF2dqDvHEeBG6R4VMob2waTuqIBxL+0W1dRYvbJnJ63XVN2E2peFR0eBA7IQdIgoZM/eUWB2e6CL/tNwP8A3IeUQ2AfVUOua93c4xMQfPKdVP8ALCIjSI7YiPCI0HILJvKfZOFNUajyp2SB82O8LDSc30ipAaBbzg+eT6p/b7YwP/sTAZr3dzjFOnqoho/HjIXdBHsjpljQdAHb1zZSCp09VYNEco3U3eQQmvd3ON4U8Sph+sgC+NMwRmDwEKEh3U8KhR+sbpeymvd3OM9oZCFRsI16i4SCWgjdL2U17u5xqWhkIVGwjXqLhIJaCN0vZTXu7nGpaGQhUbCNeouEgloI3S9lNe7ucZ7QyEKjYRr1FwkEtBG6Xspr3dzjPaGQhUbCNeouEgloI3S9lNe7ucZ7QyEKjYRr1FwkEtBG6Xspr3dzjPaGQhUbCNeouEgloI3S9lNe7ucZ7QyEKjYRr1FwkEtBG6Xspr3dzjPaGQjUbCNaouEgloI3S9lNe7ucZ7QyEajYRrVFwkEtBG6Xspr3dzjPaGQjUbCNaouEgloI3S9lNe7ucZ7QyEajYRrVFwkEtBG6Xspr3dzjPaGQjUbCNaouEgloI3S9lNe7ucZ7QyEajYRrVFwkEtBG6Xspr1dzjPaGQjUbCNaouEgloI3W9lNerucZ7QyEajYRrVFwkEtBG63sppvJldDS26m3r7Qbeh5Qbeh5Qbeh5Qbeh5QbevtBhEeMgFkD6Jw2C29faDb0PKDb0PKDb0PKDb0PKDb0PKDCsubTOO0ZFINvQ8oNvQ8oNvQ8oNvQ8oNvQ8oNvX2gxfKVdPR2av4Lf//EACoQAAEDAwMEAwEBAAMBAAAAAAEAEVEgMfAhMKFBUGHBcYGx0ZEQQOHx/9oACAEBAAE/ISS51KcyU5kpzJTmSnMlOZKcyU5kpzJTmSnMlOZKcyU5kpzJTmSnMlOZKcyU5kpzJTmSnMlOZKcyU5kpzJTmSnMlOZKcyU5kpzJTmSnMlOZKcyU5kpzJTmSnMlOZKcyU5kpzJTmSnMlOZKBLjUq53G4I3PcRcK53G4I3PcRcI3dxsK53G4I3PcRcK53G4K49xuCNz3G4K41aBOJCcSE4kJxITiQnEil6Og34Vh/xH7Wm+D8rXTslk+Heb9bXgEQOgzjz1eByrQH4ftAnd+P7oM7YdfSXhthf1ui4Vxq0S8NbLVNPPPPAdoUEaWtBFgswDkoaHL1B366faFMR9X824QgEbAYUGZ6uBwhhET4xbhMpDVgYfb6RCAIDQgi1IsgE6bEjxceEMBnnwvbrwfoX4p8SJAcoESY/X/8ABDQJ6Az7fSLBZgGI2rgrjVwKrCzWiR4Nf3whQuo02v4h8bQk2ei/wPX9RWn+UJB6j/gzY3hknoEFHB1Z1vD3tmBYxptHzBHumOttSP5s3BXKuJVFXGQLgEMh/BtB1JkydwoY1bOp/wARpk0CaE+X6JguuS5JO7cDIH0CAw5GoBp0A2LCuVcT/qQAQACbmd8dADx8+hRv5pIuCOldwRuauB2SG0Ng6B1+x+V3BXKuHsxaOehBOYflPJZB62JUCgcdD87LVqUCODtlupYkYBHw76G5DRBMBxKjyX5G4deG1HYA1d+9D+fddhXGri7EC3rrX5pPhFhn6nb4igIfrV1+UI3Y21TwkbIAdK0DqfJgIpMO6P6P7QGj6B/9Ty10Bp4vGwGEMaR+h+1C4Vyrg1zUTnwHr9P4jFinInUmrXdwPI6g+CoZWl1H0a+pq2l0H2U5zr+A6AeBURAQAuCOiKIuH9L7f2tlB+sCR6quCuNXBriB3DiPLX9N9bBLfAvB0P4P9r0DxkXxp7bBCzD/AJr/AI5rY/8ACRH9quCuVcWuKT1/QbBxR0I8H1WQ/YL/AI/vYOELfiK+LVXBXGrj12enYwE68BHYwk18WquCuNXBrs1OxgJ14COxmJr4NVcFcq4Ndmp2MBOvAR2MxNfBqhcI3NXGrs9OxmJ15iOxmJr49ULhG5q4Vdnp2MxOvMR2MxNfAqhcI3NXCrs9OxiJ14iOxmJr4VULhG5q41dnp2MBOvAR2MxNfGqhcI3NXGrs9OxkJ15COxmJr41ULhG5q4Vdnp2MpOvKR2MxNfCqhcI3NXCrs9OxlJ15SOxmJr4VULhG5q41dnp2M5OvOR2MhNfGqhcI3NXGrspOxjJ14yOxmJr41ULhG5q4VdnJ2MZOvGR2MhNfCqhcI3NXCrsJOxnJ15yOxgJr41ULhG5q49dlJ2MpOvOR2MRNfHqhcI3NXHrsJOxlJ14SOxgJr49ULhG5qMGTTtF2+fleTn4WF+lhfpYX6WF+l5OfhG10Sc7Gr8+iCzhuq8nPwsL9LC/Swv0sL9LC/S0fr0QHYN02CILgLhYX6WF+lhfpYX6WF+l5OfhGDNr2gz/HxULhG57iLhG57iLhG57iLhG57iLhG57iLhG57iLhG57iLhG57iLhG57iLhG57iLhEF7JjCYwmMJjCYwmMJjCYwmMJjCYwmMJjCYwmMJjCYwmMJjCYwmMJjCYwmMJjCYwmMJjCYwmMJjCYwmMJjCYwmMJjCYwmMJjCYwmMJjCYwmMJjCYwmMIAvZf/9oADAMBAAIAAwAAABCkUUkEUEkEkEkEEkEEEEEEUEFEU000000000000000000000002U00000000000000000000001331203003w1001000000000012U0000000000000000000000000kEkkEEEkQkkEEEEAgEEEEEEUjDDXzylVzyxxjC1zzzznjDHDHHHF3zzzzzzzzzXzzzzzwnyx1kgAB3zzzzzjzzzzzDzzzzywAATDDDXzzwDSDDzzz3zjzzzz3zzywwzXzy0wAwDzzwgAABXzzgAARDDDzzynDDizzzx3zzzXzzzzzwgQxzzz0AAATzzwkAAB3zywAARTDBzzynzTyzzzx3zzzXzyzzzigQTTzz0AAADzzwEAAB3zzgAARLLLTzy3bDLDzzzXrbZXzzjL7qggxzzzkAgBDzzyEgAD3zzwABRjDBzzy3DDDDzzzHLLJ3zyzLLKZ47Tzyk445rzzyc447Xzzg45qooKYIJoIIJKJKKYIIILCDAIIZpLLLKKLLLLLLLLLLLLLLLLLKZjDDDDDDDDDDDDDDDDDDDDDDCAoDCKDCLBDDDDDDDDDDDDDDDCQiCCADDDDDDDDDDDDDDDDDDDCSAAAAAAAAAAAAAAAAAAAAAAAAD/8QAHREAAgMBAQEBAQAAAAAAAAAAARARIDAAIXAxQP/aAAgBAwEBPxD4LPT0965U9PThKLHTSe8U1nvO8XlTlNwcD/ELTx2/aC5YU5FisosZSixcsaFi5Y0LFyxoWLljQsXLGhYuWNCxcsaFj41//8QAHREAAgMBAQEBAQAAAAAAAAAAABEBICFAEDBgcP/aAAgBAgEBPxD+DO7+kfBcMdMdMdMXmkfaOKaYYYRTDBWwwyk3jim8cU0Y6wMYx1Yx1Yx3jmj2KKy8m7GOrGMmjGMdWMdEIRFUIRtVAoFFMMMMMMMMMMMMMMMM9z3P1H//xAApEAADAAADCAIDAQEBAAAAAAAAAREgYZEQITFBUaHw8TCBUHGxwUDh/9oACAEBAAE/EM/D5nvD3h7w94e8PeHvD3h7w94e8PeHvD3h7Q94e8PeHvD3h7w94e8PeHvD3h7w94e8PeHvD3h7w94e+PeHvD3h7494e8PeHvD3h7w94e+PeGfhcxNRkIQhCEIQhCEIQhCbIQhNkIQmybZthCEwTEmsjvn+R75CahCEIQhCEIQhCEIQhCEIQhCEIQhCEIQhCEIQhCEIQgmsjvn+R75C6jIQhCbIQhCEJtmyE/7u4O4eCbYQm2EITbCE2QhCE2QhCEIQhCEIQhCEIQhBNZHfP8j3yE1GQhCEIQhCEIQhCEIQhCEIQhCEIQhCEIQmybJsmFNZHdMhCEIQhCEIQhCEIQhCEIQhCEIQhCEIQhCEIQhCEIQTWR3z/IprITWeJuFaX2e8PeHvD3h7wV92pgzL3XmfsYmTVvh/qUNG8Mt6VDQFxh/djiteX8cjd8KayODjP6W8XeGq2+0SElV+LTYso+y8cxGF/sYkA+MNEXy98hNYhCEIIlf12VyrceIf4eMf4eMf4eMf4eMf4K0SNNlBpzczgQtMpgbfBJLe2Lt4nuQ+8+65Cgbz71uT7v0N3ChGj9JbsCWvRCz9p7jfZ7vdzRX9hWy9p7nvL7rkMwq4xsuKafBkIQiJHlae6l3hw+oqL+O8mUe4LKwU/wAAwtT24sj6RovNRqHc2vaijRXuw/Ztfdch6IzAzzTT3pkJ8CL7kJrMhCEIJ4fPHuKqUsrTHV823xN7yW8SGkJn1FyZH2b+JZ8cnvyQ4M+DsOB/w48pwzOv75kN5WF+H0MjvyrIF+3jmPp1b+k4fGubESp3JLwyH9NCE29RN9Wderb13IQhCEIQTWR3DIQhCHg+uKibFtamavNUnl0j9p3FnNv5EOKXvjo3zb8198UjeH3k5NH0N6LjU9yrSOe43jrc8uC4L5UpdwbIN5Nd1ue45cc4f/8AA1ye4hCEIQgmojuHi8H1/wCTBQcFvjcr1+dLndwpO9n9L6OPkLyRLGkbLqmQhCEIJrHfPF4Pr+E2GmCblv4r+2fPbCEId0juHi8f1+HxMKa4Noeltxndg/pjUvrgiMjUSzqX9CkDR63VNbn8a3SRCHVt7kNkzH24f0ZIOK/tCqwuDQ1SWojNXkhZOPc8n8Cpo591vXCf219GN/NNPo8SaiEX3PZMHh+vwUwupxJ6F/iXPoPXlz6yJwTJJLBvO2PydG7vtRrkyByt1WlwrzX9p7nyvwLyvOFyb8l8+fBG8Ak41cud508ybeAfFxnk1wTJ1Ckd3LTk7XB8unwbhzecP8BFi75CL7GQhCEPL9cdqgPKe/dcHom/9sPr4tmnW23xbZCbIQfFSdLWSKmh2W4VdfAbmhr6xsi3ibjbuXmxL7Hv6b/wJG5LBNi/wm0bLemnyaETE3X3O245rGVFE1fX+DTF3SE1mQhCEPD9cfe/jrdBO/dQIQhCEIXsJ1cty/qs/bY3nkhz4rcn9t/pEITDPEGb3SrfuxjJ3PWX2sTuhNRkIQhDyfXHejVjLcdiEIQhCDMiSHWJOO/5tEXhWfuYQhCEIXXLmSp2xzwF/wC5hNsEX3ITWZCEIQ8f1x15vtkIQhCEF6+N1RvCEIQhDcZ0/lx+H6mEIQgi+5CazIQhCHkuuOvk85CEIQhBca6C8IQhCEF87kxr4XMwhCEE1kJqEIQhDwXXHXyechCEIQgmMVAWEIQhCC+NyY/BdTCEIQXWF1mQhCEPPdcdfF5yEIQhCC47VJYQhCEIL43Jj8V1MIQhBdYXWIQhCHnuuOvi85CEIQhBMcqFsIQhCEF87kx+W6mEIQgusLrEIQhDx3XHTxechCEIQgvwCxYQhCEIJ43Jj8d1MIQhBdYXWIQhCHnuuOni85CEIQhPgSoSwhCEIQTxuTH57qYQhCC6x3xCbJs8d1x08XnIQhCEJ8O3bCEIQhBPG5MfjuphCEILrHfYvNdcfwvXthCbJ8VWrCEIQgnicmPzXUwhCEF1jvsXiuuP4Xr/AOAqVmCbIJ4nJj8V124Qgusd9i811x/C9f8AzvXvjOjH4rri98d9smDxXXH8f1/8/Xr4Dox+K64vfC6xCEIQ811x08fnITZCE+IqVmNPI5MfiuuL3wusQhCEPFdcdfL5yEIQhCfDVqwhCEIQXyOTH5rqYQhCC6wusQhCEPPdcdPL5yEIQhCC49UFYQhCEIL4HJj891MIQhBdY74hNkIeO64/m+shCbIQnwteMIQhCEF8jkx+O6mEIQgusd9iZCVSePpwOSuGMaFCpQo1kFR04tuv4G0F0RIY25Gt6fTG9ShUoUK1CmjJCE3IluS6cvgf9FmTg1vWMKlSpUr1kBVL4evArY44YLrHffke+F1iEIQhCEIQhCEIQhCEIQhCEIQhCEIQhCE2zZCEJsh3wusQhCEIQhCEIQhCEIQhCEIQhCEIQhCEIQhCEIQhCEILrHffke+F1iEIQhCEIQhCEIQmybITDPgnzd8d9hhNkxTBCEIQhCE2QhCEIQhCE2QhCEIQhBdY7z8j3guoQhCEIQhCEIQhCEIQhCEIQhCEIQhCEIQhCEIQhCEILrHefke8F1CbZshCEIQhCEIQhCEIQhCE2QhCEIQhCEIQhCEIQgusWN7j0MxoZjQzBmNDMGY0MxoZjQzGhmNDMaGYMwZjQzGhmNDMaGY0MxoZjQzGhmNDMaGYMxoZjQzBmNDMaGY0MxoZjQzGhmNDMaGY0MxoZjQzGhmNDMaGY0MxoZjQzGhmNDMaGY0JG9x6H//Z;" vertex="1" parent="IwGxQNIVYgix1IoKI3rt-36">
          <mxGeometry x="40" y="30" width="80" height="80" as="geometry" />
        </mxCell>
        <mxCell id="IwGxQNIVYgix1IoKI3rt-39" value="&lt;div&gt;Public Instance&lt;br&gt;&lt;/div&gt;" style="text;html=1;strokeColor=none;fillColor=none;align=center;verticalAlign=middle;whiteSpace=wrap;rounded=0;fontStyle=1" vertex="1" parent="IwGxQNIVYgix1IoKI3rt-36">
          <mxGeometry x="30" y="120" width="100" height="30" as="geometry" />
        </mxCell>
        <mxCell id="IwGxQNIVYgix1IoKI3rt-40" value="Availability Zone D" style="text;html=1;strokeColor=none;fillColor=none;align=center;verticalAlign=middle;whiteSpace=wrap;rounded=0;glass=0;sketch=1;" vertex="1" parent="IwGxQNIVYgix1IoKI3rt-36">
          <mxGeometry y="150" width="110" height="20" as="geometry" />
        </mxCell>
        <mxCell id="IwGxQNIVYgix1IoKI3rt-42" value="" style="endArrow=classic;html=1;rounded=0;edgeStyle=elbowEdgeStyle;elbow=vertical;exitX=0.5;exitY=1;exitDx=0;exitDy=0;entryX=0.5;entryY=0;entryDx=0;entryDy=0;" edge="1" parent="1" source="IwGxQNIVYgix1IoKI3rt-11" target="IwGxQNIVYgix1IoKI3rt-23">
          <mxGeometry width="50" height="50" relative="1" as="geometry">
            <mxPoint x="920" y="580" as="sourcePoint" />
            <mxPoint x="970" y="530" as="targetPoint" />
            <Array as="points">
              <mxPoint x="650" y="520" />
            </Array>
          </mxGeometry>
        </mxCell>
        <mxCell id="IwGxQNIVYgix1IoKI3rt-43" value="" style="endArrow=classic;html=1;rounded=0;edgeStyle=elbowEdgeStyle;elbow=vertical;exitX=0.5;exitY=1;exitDx=0;exitDy=0;entryX=0.5;entryY=0;entryDx=0;entryDy=0;" edge="1" parent="1" source="IwGxQNIVYgix1IoKI3rt-11" target="IwGxQNIVYgix1IoKI3rt-37">
          <mxGeometry width="50" height="50" relative="1" as="geometry">
            <mxPoint x="790" y="411" as="sourcePoint" />
            <mxPoint x="530" y="580" as="targetPoint" />
            <Array as="points">
              <mxPoint x="1080" y="520" />
              <mxPoint x="660" y="530" />
            </Array>
          </mxGeometry>
        </mxCell>
        <mxCell id="IwGxQNIVYgix1IoKI3rt-45" value="" style="endArrow=classic;html=1;rounded=0;edgeStyle=elbowEdgeStyle;elbow=vertical;exitX=0.5;exitY=1;exitDx=0;exitDy=0;entryX=0.5;entryY=0;entryDx=0;entryDy=0;" edge="1" parent="1" source="IwGxQNIVYgix1IoKI3rt-11" target="IwGxQNIVYgix1IoKI3rt-27">
          <mxGeometry width="50" height="50" relative="1" as="geometry">
            <mxPoint x="790" y="411" as="sourcePoint" />
            <mxPoint x="530" y="580" as="targetPoint" />
            <Array as="points">
              <mxPoint x="770" y="520" />
              <mxPoint x="660" y="530" />
            </Array>
          </mxGeometry>
        </mxCell>
        <mxCell id="IwGxQNIVYgix1IoKI3rt-46" value="" style="endArrow=classic;html=1;rounded=0;edgeStyle=elbowEdgeStyle;elbow=vertical;exitX=0.5;exitY=1;exitDx=0;exitDy=0;entryX=0.463;entryY=-0.018;entryDx=0;entryDy=0;entryPerimeter=0;" edge="1" parent="1" source="IwGxQNIVYgix1IoKI3rt-11" target="IwGxQNIVYgix1IoKI3rt-32">
          <mxGeometry width="50" height="50" relative="1" as="geometry">
            <mxPoint x="790" y="411" as="sourcePoint" />
            <mxPoint x="906" y="570" as="targetPoint" />
            <Array as="points">
              <mxPoint x="840" y="520" />
              <mxPoint x="840" y="520" />
              <mxPoint x="670" y="540" />
            </Array>
          </mxGeometry>
        </mxCell>
        <mxCell id="IwGxQNIVYgix1IoKI3rt-47" value="&lt;div align=&quot;left&quot;&gt;&lt;br&gt;&lt;/div&gt;" style="rounded=0;whiteSpace=wrap;html=1;fillColor=#CCCCCC;glass=0;sketch=1;" vertex="1" parent="1">
          <mxGeometry x="400" y="820" width="800" height="40" as="geometry" />
        </mxCell>
        <mxCell id="IwGxQNIVYgix1IoKI3rt-48" value="Load Balancer" style="text;html=1;strokeColor=none;fillColor=none;align=center;verticalAlign=middle;whiteSpace=wrap;rounded=0;fontStyle=1" vertex="1" parent="1">
          <mxGeometry x="730" y="825" width="100" height="30" as="geometry" />
        </mxCell>
        <mxCell id="IwGxQNIVYgix1IoKI3rt-49" value="" style="endArrow=classic;html=1;rounded=0;elbow=vertical;entryX=0.75;entryY=1;entryDx=0;entryDy=0;exitX=0.153;exitY=-0.025;exitDx=0;exitDy=0;exitPerimeter=0;" edge="1" parent="1" source="IwGxQNIVYgix1IoKI3rt-47" target="IwGxQNIVYgix1IoKI3rt-24">
          <mxGeometry width="50" height="50" relative="1" as="geometry">
            <mxPoint x="510" y="820" as="sourcePoint" />
            <mxPoint x="560" y="770" as="targetPoint" />
          </mxGeometry>
        </mxCell>
        <mxCell id="IwGxQNIVYgix1IoKI3rt-50" value="" style="endArrow=classic;html=1;rounded=0;elbow=vertical;entryX=0.75;entryY=1;entryDx=0;entryDy=0;exitX=0.153;exitY=-0.025;exitDx=0;exitDy=0;exitPerimeter=0;" edge="1" parent="1">
          <mxGeometry width="50" height="50" relative="1" as="geometry">
            <mxPoint x="700.0000000000001" y="819" as="sourcePoint" />
            <mxPoint x="700.1" y="740" as="targetPoint" />
          </mxGeometry>
        </mxCell>
        <mxCell id="IwGxQNIVYgix1IoKI3rt-51" value="" style="endArrow=classic;html=1;rounded=0;elbow=vertical;entryX=0.75;entryY=1;entryDx=0;entryDy=0;exitX=0.153;exitY=-0.025;exitDx=0;exitDy=0;exitPerimeter=0;" edge="1" parent="1">
          <mxGeometry width="50" height="50" relative="1" as="geometry">
            <mxPoint x="893.5" y="819" as="sourcePoint" />
            <mxPoint x="893.5999999999999" y="740" as="targetPoint" />
          </mxGeometry>
        </mxCell>
        <mxCell id="IwGxQNIVYgix1IoKI3rt-52" value="" style="endArrow=classic;html=1;rounded=0;elbow=vertical;entryX=0.75;entryY=1;entryDx=0;entryDy=0;exitX=0.153;exitY=-0.025;exitDx=0;exitDy=0;exitPerimeter=0;" edge="1" parent="1">
          <mxGeometry width="50" height="50" relative="1" as="geometry">
            <mxPoint x="1093.5" y="819" as="sourcePoint" />
            <mxPoint x="1093.6" y="740" as="targetPoint" />
          </mxGeometry>
        </mxCell>
        <mxCell id="IwGxQNIVYgix1IoKI3rt-53" value="" style="group" vertex="1" connectable="0" parent="1">
          <mxGeometry x="470" y="350" width="110" height="100" as="geometry" />
        </mxCell>
        <mxCell id="IwGxQNIVYgix1IoKI3rt-54" value="" style="rounded=0;whiteSpace=wrap;html=1;glass=0;sketch=1;fillColor=#CCCCCC;" vertex="1" parent="IwGxQNIVYgix1IoKI3rt-53">
          <mxGeometry width="110" height="100" as="geometry" />
        </mxCell>
        <mxCell id="IwGxQNIVYgix1IoKI3rt-55" value="" style="shape=image;verticalLabelPosition=bottom;labelBackgroundColor=default;verticalAlign=top;aspect=fixed;imageAspect=0;image=data:image/jpeg,/9j/4AAQSkZJRgABAQAAAQABAAD/4gKgSUNDX1BST0ZJTEUAAQEAAAKQbGNtcwQwAABtbnRyUkdCIFhZWiAAAAAAAAAAAAAAAABhY3NwQVBQTAAAAAAAAAAAAAAAAAAAAAAAAAAAAAAAAAAA9tYAAQAAAADTLWxjbXMAAAAAAAAAAAAAAAAAAAAAAAAAAAAAAAAAAAAAAAAAAAAAAAAAAAAAAAAAAAAAAAtkZXNjAAABCAAAADhjcHJ0AAABQAAAAE53dHB0AAABkAAAABRjaGFkAAABpAAAACxyWFlaAAAB0AAAABRiWFlaAAAB5AAAABRnWFlaAAAB+AAAABRyVFJDAAACDAAAACBnVFJDAAACLAAAACBiVFJDAAACTAAAACBjaHJtAAACbAAAACRtbHVjAAAAAAAAAAEAAAAMZW5VUwAAABwAAAAcAHMAUgBHAEIAIABiAHUAaQBsAHQALQBpAG4AAG1sdWMAAAAAAAAAAQAAAAxlblVTAAAAMgAAABwATgBvACAAYwBvAHAAeQByAGkAZwBoAHQALAAgAHUAcwBlACAAZgByAGUAZQBsAHkAAAAAWFlaIAAAAAAAAPbWAAEAAAAA0y1zZjMyAAAAAAABDEoAAAXj///zKgAAB5sAAP2H///7ov///aMAAAPYAADAlFhZWiAAAAAAAABvlAAAOO4AAAOQWFlaIAAAAAAAACSdAAAPgwAAtr5YWVogAAAAAAAAYqUAALeQAAAY3nBhcmEAAAAAAAMAAAACZmYAAPKnAAANWQAAE9AAAApbcGFyYQAAAAAAAwAAAAJmZgAA8qcAAA1ZAAAT0AAACltwYXJhAAAAAAADAAAAAmZmAADypwAADVkAABPQAAAKW2Nocm0AAAAAAAMAAAAAo9cAAFR7AABMzQAAmZoAACZmAAAPXP/bAEMABQMEBAQDBQQEBAUFBQYHDAgHBwcHDwsLCQwRDxISEQ8RERMWHBcTFBoVEREYIRgaHR0fHx8TFyIkIh4kHB4fHv/bAEMBBQUFBwYHDggIDh4UERQeHh4eHh4eHh4eHh4eHh4eHh4eHh4eHh4eHh4eHh4eHh4eHh4eHh4eHh4eHh4eHh4eHv/CABEIAZABkAMBIgACEQEDEQH/xAAcAAEBAAMAAwEAAAAAAAAAAAAAAQYHCAMEBQL/xAAVAQEBAAAAAAAAAAAAAAAAAAAAAf/aAAwDAQACEAMQAAAB1mFEKQqUAEKAlACUAJQAAlAAAAAABCgAFEsAAAAAAAAAAAAAAAAAAAAAAAFlCwAAAAAAAAAAAAAAAAAAAAAAAFE/UIoSiUAIoAAilBEoAASgAAAAAAAAAAULAAAAAAAAAAAAAAAAAAAAAAABZSywFIogCUAFIoh7B67IPZMWff8AkHrlIoiiKItPy+v75jLKPTPhvL4yKIoiiKIolCyiKIo2btPWW2E9R7Y9R7Y+Dzj0xoE+PnezciMVyf8AYAfn9DFtb7xHKk3/AKOX0V98+fluy80TBsv9oAAeLFsuGj8F6qxw52fX+SsURRFEqifqEURRtLbGp9sIAB63j90AAAAAPgffHO+8/qUAAAAAA+bz30tjZzw/f5WUEoFLKIoijaO19UbXQAAAeueww/0jPWK5OfsAAAAB+caMnYF7ZmT1vZAAANM686N5yUoiiULP1CKIo2htfVO1kAAGLnzNO+v+ViifW+UOgsl5k6NT3gAAMc+pzme38elij2NwaXp1MxXKkAAc39IaRMFUsUSqFgABtDa2qtqoAA0ZvPmg9AKUQDbGqM0N4hAANX6pzPDViiKIozHenNHS6AANR7c1UauUsUShZ+oRRFGz9q6q2qgADmDp/mE8CliiKJlmKZWb5CAAaGxPLMUIpYoijydQcwdPoAA1VtXVRq9SxRKpZRFgBs/amq9qIAA5h6e5iPCpYoiiZXiuVG+AgAGh8UyvFSKWKIo8nT3MPTyAANV7U1WawUsUShZ+oRRFGztp6s2mgADmPpzmQ8CliiKJleK5Ub3CAAaIxTK8VIpYoijydO8x9OIAA1ZtPVhrBSxRKoURYFhs3aerdpIAA5k6b5lPCpYoiiZVi2VG9QgAGicVyvFSKWKIo8nTfMnTaAANWbT1aaxUsUShZ+oRRFGzNpau2igADmbpnmY8KliiKJlWLZUb0CAAaKxXK8VIpYoijydNczdMoAA1btLVxrFSxRKoUQpAbM2jq7aKAAOZ+mOaDwqWFIomU4vlJvMIABovFsqxYhViiKP30zzP0wgADV20dXGs1LFEUWURRFGy9oav2ggADmnpbmk8KliiKJlOL5SbyCAAaMxbKsWIpYoijydL80dLoAA1ftDV5rNSxRKoWCUAbK2hrDZ6AAOauleazwhQAGUYvlJvEIABo3F8pxYBQAPJ0tzV0qgADV+0NYGtAoAoUQpFH0Pp45DJGODI2ODI8clIoiiKJ7PrjI2ODI2ODI2OD2PWsCiKIoZHjgyNjgyNjgyP5nzxFEUShZRFEURRFEURRFEURRFEURRFEURRFEURRFEURRFEUShZVRRFEURRFEURRFEURRFEURRFEURRFEURRFEURRFEqiVEVUURURVRRFRFVFEURRFEURRFEURRFEURRFEURRFEoWURRFEURRFEURRFEURRFEURRFEURRFEURRFEURRFEoH6hFEURRFEURRFEURRFEURRFEURRFEURRFEURRFEUSqf/xAAuEAAABQMEAQMCBgMAAAAAAAADBAUGIAABAjAyMzUVFDFQERMHEBIWIUAkQZD/2gAIAQEAAQUC+Sv7/IW+Tv7/ACFvk/8AfyFve/v8hb5O/v8AIWq/yNvkrVf+iECKNcNFVc6/b6vWaMq4UKCMDfRxtfK4SaoC1igq+VXb6vahElTDoTDMO+reTDDDEy9MXr0xevTF69MXr0xelUuBZMrG18sk1sHDFEm+mFaxxxwx/PLHHKx1ATDVKjZOFrXt9LwTG+fO0SbCcBQBcAC0BAwxMTrdTDNKTYOl6ytfHLRtV5fh/vir9UkpplSGSEcom4aK2hllHE6VHJmKIkzB0dFb5Ujpq6OUUsFRPMJxjQtV/eLA3xNBWHLEywJQvpraYCplSSMcMqKYQLp5fUUiQB8qqERk83O3vf3iwN/9P6W+us4E3FSJZY3xylabA3/BvUh9k3K1X94sDdoDjBAYDuRKDv8AupNos4Eoa+GWOeOlle2NjK8lgXu6k36guVKEuXHBMYTXSnrUuVve8mDvm4V/Ejc0YHNC/mnKBsgIhq4KmFoLasAmAqSkcUM/zLDjFhG84MTmU1oD0yrK/vFg75ORR8en3vfK8SZgUoZIGcDhOSgawJkzpkU2Zjb+LtlR8gnyewf6FiNqvJg75PEz99XmxDP1Dk+zN7YzZ5n7CxJ+4/5MbVf3iwt8lHP7qhNmZ/pW5PLP9S3NPz+0fk/d8bVeTC3SG5ptLvpO3vpg80n7vjaryYW+Q3NNpd9J299MLlk/d8bVf3iwt8huabS76Tt76YXLJ+79Rh7pDc02n3snZ3swuWT83ajD3SG5ptPvZOzvZhcsn5v1GHukNzTafeydnezC5ZPzdqMTdIbmm0+9k7O9mFyyfe7UYm6Q3NNqd7J197MLlk+92oxN0huabU72Tr72YXLJ97tRibpDc02p3snX3swuWT73ajF3SG5ptTvJOvvJhcsn1u1GLukNzTaneSdfeTC5ZPrdqMXdIbmm1O8k6+8mFyyfW7UYu6Q3NNq95J1d5MLlk+d2oxt0huabV7yTq7yYXLJ87tRjbpDc02r3knV3kwuWT53ahI8aJV51VrzqrXnVWvOqtedVa86q1e/1vMqOKWG86q151VrzqrXnVWvOqtedVaNDimRp2/i/nVWvOqtedVa86q151VrzqrR08aO/8Lf/xAAUEQEAAAAAAAAAAAAAAAAAAACQ/9oACAEDAQE/ARx//8QAFBEBAAAAAAAAAAAAAAAAAAAAkP/aAAgBAgEBPwEcf//EAD0QAAADBAYGBQsEAwAAAAAAAAECAwAEIDARcXKCscESITE0QZITIjJRUhQjM0BhYoGRoaLREEKQ4VBTc//aAAgBAQAGPwL+DehJI6lktLanFX46m3MecG1uK3wClqFUjp2i0SqCgIj7G6jkuNxtyN8RBtzHmBus4r/AtLUKEMQfeCj1R70yFN2doVtu6XIDegS5Ab0CXIDegS5Ab0CXIDPQggmA9Cb9od36AUoCIjsAGA7yPkxO7aZgHoOlN4lNbaJSgUO4IKDAAh3Cw+Y6I3iT1MJ3YfKU/Z2vk1A7YQPodAl4j/hgFbSeDe9qD5NQiimmHuloh0VCFOHcYKW1I9CbvT1fRhO7CDyT2ajfJhKYBAQ2gPqL5dziev8AibBujQL1Q7Rx2FbzZdNXiobb/UoThQk8cDhxrYyDwTROH1/QEXdMTm+gMCitC6/iHYWqX5wugrwULt/tuiXLZMGw3qD5dziUREaAUKJaWKg7k0SFmdGfqqB6M/cxnPQ0BTHzhh2FYEUC0eI3E00yC5aQHYPEo97Gd1rpvEHfPfLufqlNE8SB6YmtMcmEpgoMGoQnPl3P/CFfUw6i2o9qc93c5OmsoRMveYaGoBYylgrdh45Q/LUeU9GPvhQwGIYDAPEJekYQAA4i1AvIHH3A0m7Dxyh+WoFU6dsjaaCpFC95RpkLI0daiklYTnu7nIF2dqDvHEeBG6R4VMob2waTuqIBxL+0W1dRYvbJnJ63XVN2E2peFR0eBA7IQdIgoZM/eUWB2e6CL/tNwP8A3IeUQ2AfVUOua93c4xMQfPKdVP8ALCIjSI7YiPCI0HILJvKfZOFNUajyp2SB82O8LDSc30ipAaBbzg+eT6p/b7YwP/sTAZr3dzjFOnqoho/HjIXdBHsjpljQdAHb1zZSCp09VYNEco3U3eQQmvd3ON4U8Sph+sgC+NMwRmDwEKEh3U8KhR+sbpeymvd3OM9oZCFRsI16i4SCWgjdL2U17u5xqWhkIVGwjXqLhIJaCN0vZTXu7nGpaGQhUbCNeouEgloI3S9lNe7ucZ7QyEKjYRr1FwkEtBG6Xspr3dzjPaGQhUbCNeouEgloI3S9lNe7ucZ7QyEKjYRr1FwkEtBG6Xspr3dzjPaGQhUbCNeouEgloI3S9lNe7ucZ7QyEKjYRr1FwkEtBG6Xspr3dzjPaGQjUbCNaouEgloI3S9lNe7ucZ7QyEajYRrVFwkEtBG6Xspr3dzjPaGQjUbCNaouEgloI3S9lNe7ucZ7QyEajYRrVFwkEtBG6Xspr3dzjPaGQjUbCNaouEgloI3S9lNe7ucZ7QyEajYRrVFwkEtBG6Xspr1dzjPaGQjUbCNaouEgloI3W9lNerucZ7QyEajYRrVFwkEtBG63sppvJldDS26m3r7Qbeh5Qbeh5Qbeh5Qbeh5QbevtBhEeMgFkD6Jw2C29faDb0PKDb0PKDb0PKDb0PKDb0PKDCsubTOO0ZFINvQ8oNvQ8oNvQ8oNvQ8oNvQ8oNvX2gxfKVdPR2av4Lf//EACoQAAEDAwMEAwEBAAMBAAAAAAEAEVEgMfAhMKFBUGHBcYGx0ZEQQOHx/9oACAEBAAE/ISS51KcyU5kpzJTmSnMlOZKcyU5kpzJTmSnMlOZKcyU5kpzJTmSnMlOZKcyU5kpzJTmSnMlOZKcyU5kpzJTmSnMlOZKcyU5kpzJTmSnMlOZKcyU5kpzJTmSnMlOZKcyU5kpzJTmSnMlOZKBLjUq53G4I3PcRcK53G4I3PcRcI3dxsK53G4I3PcRcK53G4K49xuCNz3G4K41aBOJCcSE4kJxITiQnEil6Og34Vh/xH7Wm+D8rXTslk+Heb9bXgEQOgzjz1eByrQH4ftAnd+P7oM7YdfSXhthf1ui4Vxq0S8NbLVNPPPPAdoUEaWtBFgswDkoaHL1B366faFMR9X824QgEbAYUGZ6uBwhhET4xbhMpDVgYfb6RCAIDQgi1IsgE6bEjxceEMBnnwvbrwfoX4p8SJAcoESY/X/8ABDQJ6Az7fSLBZgGI2rgrjVwKrCzWiR4Nf3whQuo02v4h8bQk2ei/wPX9RWn+UJB6j/gzY3hknoEFHB1Z1vD3tmBYxptHzBHumOttSP5s3BXKuJVFXGQLgEMh/BtB1JkydwoY1bOp/wARpk0CaE+X6JguuS5JO7cDIH0CAw5GoBp0A2LCuVcT/qQAQACbmd8dADx8+hRv5pIuCOldwRuauB2SG0Ng6B1+x+V3BXKuHsxaOehBOYflPJZB62JUCgcdD87LVqUCODtlupYkYBHw76G5DRBMBxKjyX5G4deG1HYA1d+9D+fddhXGri7EC3rrX5pPhFhn6nb4igIfrV1+UI3Y21TwkbIAdK0DqfJgIpMO6P6P7QGj6B/9Ty10Bp4vGwGEMaR+h+1C4Vyrg1zUTnwHr9P4jFinInUmrXdwPI6g+CoZWl1H0a+pq2l0H2U5zr+A6AeBURAQAuCOiKIuH9L7f2tlB+sCR6quCuNXBriB3DiPLX9N9bBLfAvB0P4P9r0DxkXxp7bBCzD/AJr/AI5rY/8ACRH9quCuVcWuKT1/QbBxR0I8H1WQ/YL/AI/vYOELfiK+LVXBXGrj12enYwE68BHYwk18WquCuNXBrs1OxgJ14COxmJr4NVcFcq4Ndmp2MBOvAR2MxNfBqhcI3NXGrs9OxmJ15iOxmJr49ULhG5q4Vdnp2MxOvMR2MxNfAqhcI3NXCrs9OxiJ14iOxmJr4VULhG5q41dnp2MBOvAR2MxNfGqhcI3NXGrs9OxkJ15COxmJr41ULhG5q4Vdnp2MpOvKR2MxNfCqhcI3NXCrs9OxlJ15SOxmJr4VULhG5q41dnp2M5OvOR2MhNfGqhcI3NXGrspOxjJ14yOxmJr41ULhG5q4VdnJ2MZOvGR2MhNfCqhcI3NXCrsJOxnJ15yOxgJr41ULhG5q49dlJ2MpOvOR2MRNfHqhcI3NXHrsJOxlJ14SOxgJr49ULhG5qMGTTtF2+fleTn4WF+lhfpYX6WF+l5OfhG10Sc7Gr8+iCzhuq8nPwsL9LC/Swv0sL9LC/S0fr0QHYN02CILgLhYX6WF+lhfpYX6WF+l5OfhGDNr2gz/HxULhG57iLhG57iLhG57iLhG57iLhG57iLhG57iLhG57iLhG57iLhG57iLhG57iLhEF7JjCYwmMJjCYwmMJjCYwmMJjCYwmMJjCYwmMJjCYwmMJjCYwmMJjCYwmMJjCYwmMJjCYwmMJjCYwmMJjCYwmMJjCYwmMJjCYwmMJjCYwmMJjCYwmMIAvZf/9oADAMBAAIAAwAAABCkUUkEUEkEkEkEEkEEEEEEUEFEU000000000000000000000002U00000000000000000000001331203003w1001000000000012U0000000000000000000000000kEkkEEEkQkkEEEEAgEEEEEEUjDDXzylVzyxxjC1zzzznjDHDHHHF3zzzzzzzzzXzzzzzwnyx1kgAB3zzzzzjzzzzzDzzzzywAATDDDXzzwDSDDzzz3zjzzzz3zzywwzXzy0wAwDzzwgAABXzzgAARDDDzzynDDizzzx3zzzXzzzzzwgQxzzz0AAATzzwkAAB3zywAARTDBzzynzTyzzzx3zzzXzyzzzigQTTzz0AAADzzwEAAB3zzgAARLLLTzy3bDLDzzzXrbZXzzjL7qggxzzzkAgBDzzyEgAD3zzwABRjDBzzy3DDDDzzzHLLJ3zyzLLKZ47Tzyk445rzzyc447Xzzg45qooKYIJoIIJKJKKYIIILCDAIIZpLLLKKLLLLLLLLLLLLLLLLLKZjDDDDDDDDDDDDDDDDDDDDDDCAoDCKDCLBDDDDDDDDDDDDDDDCQiCCADDDDDDDDDDDDDDDDDDDCSAAAAAAAAAAAAAAAAAAAAAAAAD/8QAHREAAgMBAQEBAQAAAAAAAAAAARARIDAAIXAxQP/aAAgBAwEBPxD4LPT0965U9PThKLHTSe8U1nvO8XlTlNwcD/ELTx2/aC5YU5FisosZSixcsaFi5Y0LFyxoWLljQsXLGhYuWNCxcsaFj41//8QAHREAAgMBAQEBAQAAAAAAAAAAABEBICFAEDBgcP/aAAgBAgEBPxD+DO7+kfBcMdMdMdMXmkfaOKaYYYRTDBWwwyk3jim8cU0Y6wMYx1Yx1Yx3jmj2KKy8m7GOrGMmjGMdWMdEIRFUIRtVAoFFMMMMMMMMMMMMMMMM9z3P1H//xAApEAADAAADCAIDAQEBAAAAAAAAAREgYZEQITFBUaHw8TCBUHGxwUDh/9oACAEBAAE/EM/D5nvD3h7w94e8PeHvD3h7w94e8PeHvD3h7Q94e8PeHvD3h7w94e8PeHvD3h7w94e8PeHvD3h7w94e+PeHvD3h7494e8PeHvD3h7w94e+PeGfhcxNRkIQhCEIQhCEIQhCbIQhNkIQmybZthCEwTEmsjvn+R75CahCEIQhCEIQhCEIQhCEIQhCEIQhCEIQhCEIQhCEIQgmsjvn+R75C6jIQhCbIQhCEJtmyE/7u4O4eCbYQm2EITbCE2QhCE2QhCEIQhCEIQhCEIQhBNZHfP8j3yE1GQhCEIQhCEIQhCEIQhCEIQhCEIQhCEIQmybJsmFNZHdMhCEIQhCEIQhCEIQhCEIQhCEIQhCEIQhCEIQhCEIQTWR3z/IprITWeJuFaX2e8PeHvD3h7wV92pgzL3XmfsYmTVvh/qUNG8Mt6VDQFxh/djiteX8cjd8KayODjP6W8XeGq2+0SElV+LTYso+y8cxGF/sYkA+MNEXy98hNYhCEIIlf12VyrceIf4eMf4eMf4eMf4eMf4K0SNNlBpzczgQtMpgbfBJLe2Lt4nuQ+8+65Cgbz71uT7v0N3ChGj9JbsCWvRCz9p7jfZ7vdzRX9hWy9p7nvL7rkMwq4xsuKafBkIQiJHlae6l3hw+oqL+O8mUe4LKwU/wAAwtT24sj6RovNRqHc2vaijRXuw/Ztfdch6IzAzzTT3pkJ8CL7kJrMhCEIJ4fPHuKqUsrTHV823xN7yW8SGkJn1FyZH2b+JZ8cnvyQ4M+DsOB/w48pwzOv75kN5WF+H0MjvyrIF+3jmPp1b+k4fGubESp3JLwyH9NCE29RN9Wderb13IQhCEIQTWR3DIQhCHg+uKibFtamavNUnl0j9p3FnNv5EOKXvjo3zb8198UjeH3k5NH0N6LjU9yrSOe43jrc8uC4L5UpdwbIN5Nd1ue45cc4f/8AA1ye4hCEIQgmojuHi8H1/wCTBQcFvjcr1+dLndwpO9n9L6OPkLyRLGkbLqmQhCEIJrHfPF4Pr+E2GmCblv4r+2fPbCEId0juHi8f1+HxMKa4Noeltxndg/pjUvrgiMjUSzqX9CkDR63VNbn8a3SRCHVt7kNkzH24f0ZIOK/tCqwuDQ1SWojNXkhZOPc8n8Cpo591vXCf219GN/NNPo8SaiEX3PZMHh+vwUwupxJ6F/iXPoPXlz6yJwTJJLBvO2PydG7vtRrkyByt1WlwrzX9p7nyvwLyvOFyb8l8+fBG8Ak41cud508ybeAfFxnk1wTJ1Ckd3LTk7XB8unwbhzecP8BFi75CL7GQhCEPL9cdqgPKe/dcHom/9sPr4tmnW23xbZCbIQfFSdLWSKmh2W4VdfAbmhr6xsi3ibjbuXmxL7Hv6b/wJG5LBNi/wm0bLemnyaETE3X3O245rGVFE1fX+DTF3SE1mQhCEPD9cfe/jrdBO/dQIQhCEIXsJ1cty/qs/bY3nkhz4rcn9t/pEITDPEGb3SrfuxjJ3PWX2sTuhNRkIQhDyfXHejVjLcdiEIQhCDMiSHWJOO/5tEXhWfuYQhCEIXXLmSp2xzwF/wC5hNsEX3ITWZCEIQ8f1x15vtkIQhCEF6+N1RvCEIQhDcZ0/lx+H6mEIQgi+5CazIQhCHkuuOvk85CEIQhBca6C8IQhCEF87kxr4XMwhCEE1kJqEIQhDwXXHXyechCEIQgmMVAWEIQhCC+NyY/BdTCEIQXWF1mQhCEPPdcdfF5yEIQhCC47VJYQhCEIL43Jj8V1MIQhBdYXWIQhCHnuuOvi85CEIQhBMcqFsIQhCEF87kx+W6mEIQgusLrEIQhDx3XHTxechCEIQgvwCxYQhCEIJ43Jj8d1MIQhBdYXWIQhCHnuuOni85CEIQhPgSoSwhCEIQTxuTH57qYQhCC6x3xCbJs8d1x08XnIQhCEJ8O3bCEIQhBPG5MfjuphCEILrHfYvNdcfwvXthCbJ8VWrCEIQgnicmPzXUwhCEF1jvsXiuuP4Xr/AOAqVmCbIJ4nJj8V124Qgusd9i811x/C9f8AzvXvjOjH4rri98d9smDxXXH8f1/8/Xr4Dox+K64vfC6xCEIQ811x08fnITZCE+IqVmNPI5MfiuuL3wusQhCEPFdcdfL5yEIQhCfDVqwhCEIQXyOTH5rqYQhCC6wusQhCEPPdcdPL5yEIQhCC49UFYQhCEIL4HJj891MIQhBdY74hNkIeO64/m+shCbIQnwteMIQhCEF8jkx+O6mEIQgusd9iZCVSePpwOSuGMaFCpQo1kFR04tuv4G0F0RIY25Gt6fTG9ShUoUK1CmjJCE3IluS6cvgf9FmTg1vWMKlSpUr1kBVL4evArY44YLrHffke+F1iEIQhCEIQhCEIQhCEIQhCEIQhCEIQhCE2zZCEJsh3wusQhCEIQhCEIQhCEIQhCEIQhCEIQhCEIQhCEIQhCEILrHffke+F1iEIQhCEIQhCEIQmybITDPgnzd8d9hhNkxTBCEIQhCE2QhCEIQhCE2QhCEIQhBdY7z8j3guoQhCEIQhCEIQhCEIQhCEIQhCEIQhCEIQhCEIQhCEILrHefke8F1CbZshCEIQhCEIQhCEIQhCE2QhCEIQhCEIQhCEIQgusWN7j0MxoZjQzBmNDMGY0MxoZjQzGhmNDMaGYMwZjQzGhmNDMaGY0MxoZjQzGhmNDMaGYMxoZjQzBmNDMaGY0MxoZjQzGhmNDMaGY0MxoZjQzGhmNDMaGY0MxoZjQzGhmNDMaGY0JG9x6H//Z;" vertex="1" parent="IwGxQNIVYgix1IoKI3rt-53">
          <mxGeometry x="27.5" y="17.647058823529413" width="47.05882352941177" height="47.05882352941177" as="geometry" />
        </mxCell>
        <mxCell id="IwGxQNIVYgix1IoKI3rt-56" value="&lt;div&gt;Backup Instance&lt;br&gt;&lt;/div&gt;" style="text;html=1;strokeColor=none;fillColor=none;align=center;verticalAlign=middle;whiteSpace=wrap;rounded=0;fontStyle=1" vertex="1" parent="IwGxQNIVYgix1IoKI3rt-53">
          <mxGeometry x="20.625" y="70.58823529411765" width="68.75" height="17.647058823529413" as="geometry" />
        </mxCell>
      </root>
    </mxGraphModel>
  </diagram>
</mxfile>
